<svg id="visual" viewBox="0 0 900 600" width="900" height="600" xmlns="http://www.w3.org/2000/svg" xmlns:xlink="http://www.w3.org/1999/xlink" version="1.1"><rect x="0" y="0" width="900" height="600" fill="#e2e8ec"></rect><defs><linearGradient id="grad1_0" x1="33.3%" y1="0%" x2="100%" y2="100%"><stop offset="20%" stop-color="#ecf0f3" stop-opacity="1"></stop><stop offset="80%" stop-color="#ecf0f3" stop-opacity="1"></stop></linearGradient></defs><defs><linearGradient id="grad2_0" x1="0%" y1="0%" x2="66.7%" y2="100%"><stop offset="20%" stop-color="#ecf0f3" stop-opacity="1"></stop><stop offset="80%" stop-color="#ecf0f3" stop-opacity="1"></stop></linearGradient></defs><g transform="translate(900, 0)"><path d="M0 351.5C-35.5 297.9 -71 244.3 -128 221.7C-185 199.1 -263.6 207.5 -304.4 175.8C-345.3 144 -348.4 72 -351.5 0L0 0Z" fill="#ff014f"></path></g><g transform="translate(0, 600)"><path d="M0 -351.5C25.4 -280.4 50.7 -209.2 109 -188.8C167.3 -168.4 258.5 -198.8 304.4 -175.8C350.4 -152.8 350.9 -76.4 351.5 0L0 0Z" fill="#ff014f"></path></g></svg>