<svg xmlns="http://www.w3.org/2000/svg" version="1.1" xmlns:xlink="http://www.w3.org/1999/xlink" xmlns:svgjs="http://svgjs.dev/svgjs" width="1440" height="560" preserveAspectRatio="none" viewBox="0 0 1440 560"><g mask="url(&quot;#SvgjsMask1018&quot;)" fill="none"><rect width="1440" height="560" x="0" y="0" fill="#0e2a47"></rect><path d="M720 712.45C834.68 719.79 942.7 665.08 1027.02 587.02 1115.08 505.49 1192.5 399.85 1187.09 280 1181.86 163.35 1089.41 75.18 1000.57-0.57 920.33-68.98 825.26-112.5 720-118.28 607.73-124.43 492-106.58 406.89-33.11 316.05 45.33 250.02 160.32 258.86 280 267.32 394.34 366.37 471.56 450.01 549.99 529.63 624.66 611.06 705.44 720 712.45" fill="rgba(255, 1, 79, 1)"></path><path d="M720 559.82C794.21 564.57 864.1 529.17 918.66 478.66 975.64 425.9 1025.73 357.55 1022.24 280 1018.85 204.52 959.03 147.47 901.54 98.46 849.62 54.19 788.11 26.03 720 22.29 647.36 18.31 572.47 29.86 517.4 77.4 458.62 128.16 415.89 202.56 421.61 280 427.09 353.99 491.18 403.95 545.3 454.7 596.82 503.01 649.51 555.29 720 559.82" fill="rgba(255, 255, 255, 1)"></path><path d="M720 407.19C753.73 409.35 785.5 393.26 810.3 370.3 836.2 346.32 858.97 315.25 857.38 280 855.84 245.69 828.65 219.76 802.52 197.48 778.92 177.36 750.96 164.56 720 162.86 686.98 161.05 652.94 166.3 627.91 187.91 601.19 210.98 581.77 244.8 584.37 280 586.86 313.63 615.99 336.34 640.59 359.41 664.01 381.37 687.96 405.13 720 407.19" fill="rgba(255, 1, 79, 1)"></path></g><defs><mask id="SvgjsMask1018"><rect width="1440" height="560" fill="#ffffff"></rect></mask></defs></svg>