<svg xmlns="http://www.w3.org/2000/svg" version="1.1" xmlns:xlink="http://www.w3.org/1999/xlink" xmlns:svgjs="http://svgjs.dev/svgjs" width="1440" height="960" preserveAspectRatio="none" viewBox="0 0 1440 560"><g mask="url(&quot;#SvgjsMask1008&quot;)" fill="none"><path d="M720 743.22C839.92 738.59 949.7 679.3 1031.13 591.13 1109.27 506.54 1157.65 394.75 1147.92 280 1138.85 172.87 1057.52 94.53 982.45 17.55 905.95-60.88 829.04-148.2 720-158.74 602.56-170.09 483.56-123.27 401.45-38.55 320.43 45.06 297.89 163.62 294.76 280 291.53 400.46 302.41 527.32 383.91 616.09 468.13 707.82 595.59 748.01 720 743.22" fill="rgba(255, 1, 79, 1)"></path><path d="M720 579.73C797.59 576.74 868.63 538.37 921.32 481.32 971.88 426.59 1003.18 354.25 996.89 280 991.02 210.68 938.39 159.99 889.82 110.18 840.32 59.43 790.55 2.93 720-3.89 644.01-11.24 567.01 19.06 513.88 73.88 461.46 127.98 446.87 204.69 444.85 280 442.76 357.95 449.8 440.03 502.53 497.47 557.02 556.83 639.5 582.83 720 579.73" fill="rgba(255, 255, 255, 1)"></path><path d="M720 416.24C755.27 414.88 787.56 397.44 811.51 371.51 834.49 346.63 848.72 313.75 845.86 280 843.19 248.49 819.27 225.45 797.19 202.81 774.69 179.74 752.07 154.06 720 150.96 685.46 147.62 650.46 161.39 626.31 186.31 602.48 210.9 595.85 245.77 594.93 280 593.98 315.43 597.18 352.74 621.15 378.85 645.92 405.83 683.41 417.65 720 416.24" fill="rgba(255, 1, 79, 1)"></path></g><defs><mask id="SvgjsMask1008"><rect width="1440" height="960" fill="#ffffff"></rect></mask></defs></svg>