<svg xmlns="http://www.w3.org/2000/svg" version="1.1" xmlns:xlink="http://www.w3.org/1999/xlink" xmlns:svgjs="http://svgjs.dev/svgjs" width="1000" height="560" preserveAspectRatio="none" viewBox="0 0 1000 560"><g mask="url(&quot;#SvgjsMask1084&quot;)" fill="none"><g mask="url(&quot;#SvgjsMask1086&quot;)"><path d="M45 285L75 255L105 255L135 255M255 315L285 285L315 285L345 285M165 315L195 285M-15 285L15 285L45 285L75 285L105 315L135 315L165 315L195 315L225 315L255 315L285 315" stroke="url(&quot;#SvgjsLinearGradient1085&quot;)" stroke-width="5"></path><path d="M277.5 315 a7.5 7.5 0 1 0 15 0 a7.5 7.5 0 1 0 -15 0zM127.5 255 a7.5 7.5 0 1 0 15 0 a7.5 7.5 0 1 0 -15 0zM337.5 285 a7.5 7.5 0 1 0 15 0 a7.5 7.5 0 1 0 -15 0zM187.5 285 a7.5 7.5 0 1 0 15 0 a7.5 7.5 0 1 0 -15 0z" fill="url(&quot;#SvgjsLinearGradient1085&quot;)"></path><path d="M-15 255L15 255L45 225" stroke="url(&quot;#SvgjsLinearGradient1085&quot;)" stroke-width="5"></path><path d="M37.5 225 a7.5 7.5 0 1 0 15 0 a7.5 7.5 0 1 0 -15 0z" fill="url(&quot;#SvgjsLinearGradient1085&quot;)"></path><path d="M405 345L435 375L465 375L495 375L525 375L555 375M435 345L465 315L495 315L525 315L555 315L585 315L615 285L645 285L675 285L705 285L735 255L765 255L795 255M45 315L75 345M375 375L405 375L435 405L465 405L495 405L525 405L555 405L585 405M345 375L375 345L405 315L435 315L465 285M705 405L735 435L765 435L795 435L825 465M675 375L705 375L735 375L765 375M-15 315L15 315L45 315L75 315L105 345L135 345L165 345L195 345L225 345L255 345L285 345L315 345L345 375L375 375L405 345L435 345L465 345L495 345L525 345L555 345L585 345L615 345L645 375L675 375L705 405L735 405L765 405L795 405L825 405" stroke="url(&quot;#SvgjsLinearGradient1085&quot;)" stroke-width="5"></path><path d="M817.5 405 a7.5 7.5 0 1 0 15 0 a7.5 7.5 0 1 0 -15 0zM547.5 375 a7.5 7.5 0 1 0 15 0 a7.5 7.5 0 1 0 -15 0zM787.5 255 a7.5 7.5 0 1 0 15 0 a7.5 7.5 0 1 0 -15 0zM67.5 345 a7.5 7.5 0 1 0 15 0 a7.5 7.5 0 1 0 -15 0zM577.5 405 a7.5 7.5 0 1 0 15 0 a7.5 7.5 0 1 0 -15 0zM457.5 285 a7.5 7.5 0 1 0 15 0 a7.5 7.5 0 1 0 -15 0zM817.5 465 a7.5 7.5 0 1 0 15 0 a7.5 7.5 0 1 0 -15 0zM757.5 375 a7.5 7.5 0 1 0 15 0 a7.5 7.5 0 1 0 -15 0z" fill="url(&quot;#SvgjsLinearGradient1085&quot;)"></path><path d="M165 165L195 195M315 165L345 195L375 195L405 225M105 165L135 195L165 195M-15 225L15 225L45 195L75 195L105 165L135 165L165 165L195 165L225 165L255 165L285 165L315 165L345 165L375 165L405 195" stroke="url(&quot;#SvgjsLinearGradient1085&quot;)" stroke-width="5"></path><path d="M397.5 195 a7.5 7.5 0 1 0 15 0 a7.5 7.5 0 1 0 -15 0zM187.5 195 a7.5 7.5 0 1 0 15 0 a7.5 7.5 0 1 0 -15 0zM397.5 225 a7.5 7.5 0 1 0 15 0 a7.5 7.5 0 1 0 -15 0zM157.5 195 a7.5 7.5 0 1 0 15 0 a7.5 7.5 0 1 0 -15 0z" fill="url(&quot;#SvgjsLinearGradient1085&quot;)"></path><path d="M285 375L315 405L345 405M255 375L285 405M15 345L45 345M-15 345L15 345L45 375L75 375L105 375L135 375L165 375L195 375L225 375L255 375L285 375L315 375" stroke="url(&quot;#SvgjsLinearGradient1085&quot;)" stroke-width="5"></path><path d="M307.5 375 a7.5 7.5 0 1 0 15 0 a7.5 7.5 0 1 0 -15 0zM337.5 405 a7.5 7.5 0 1 0 15 0 a7.5 7.5 0 1 0 -15 0zM277.5 405 a7.5 7.5 0 1 0 15 0 a7.5 7.5 0 1 0 -15 0zM37.5 345 a7.5 7.5 0 1 0 15 0 a7.5 7.5 0 1 0 -15 0z" fill="url(&quot;#SvgjsLinearGradient1085&quot;)"></path><path d="M315 135L345 105L375 105L405 135M255 135L285 105L315 105L345 75M225 135L255 105M-15 195L15 195L45 165L75 165L105 135L135 135L165 135L195 135L225 135L255 135L285 135L315 135L345 135L375 135" stroke="url(&quot;#SvgjsLinearGradient1085&quot;)" stroke-width="5"></path><path d="M367.5 135 a7.5 7.5 0 1 0 15 0 a7.5 7.5 0 1 0 -15 0zM397.5 135 a7.5 7.5 0 1 0 15 0 a7.5 7.5 0 1 0 -15 0zM337.5 75 a7.5 7.5 0 1 0 15 0 a7.5 7.5 0 1 0 -15 0zM247.5 105 a7.5 7.5 0 1 0 15 0 a7.5 7.5 0 1 0 -15 0z" fill="url(&quot;#SvgjsLinearGradient1085&quot;)"></path><path d="M45 405L75 435L105 465L135 465L165 495M105 405L135 435L165 435M195 405L225 435L255 435L285 435M-15 375L15 375L45 405L75 405L105 405L135 405L165 405L195 405L225 405" stroke="url(&quot;#SvgjsLinearGradient1085&quot;)" stroke-width="5"></path><path d="M217.5 405 a7.5 7.5 0 1 0 15 0 a7.5 7.5 0 1 0 -15 0zM157.5 495 a7.5 7.5 0 1 0 15 0 a7.5 7.5 0 1 0 -15 0zM157.5 435 a7.5 7.5 0 1 0 15 0 a7.5 7.5 0 1 0 -15 0zM277.5 435 a7.5 7.5 0 1 0 15 0 a7.5 7.5 0 1 0 -15 0z" fill="url(&quot;#SvgjsLinearGradient1085&quot;)"></path><path d="M135 105L165 75L195 75M105 105L135 75M45 135L75 105L105 75M-15 165L15 165L45 135L75 135L105 105L135 105L165 105L195 105L225 75L255 75L285 75" stroke="url(&quot;#SvgjsLinearGradient1085&quot;)" stroke-width="5"></path><path d="M277.5 75 a7.5 7.5 0 1 0 15 0 a7.5 7.5 0 1 0 -15 0zM187.5 75 a7.5 7.5 0 1 0 15 0 a7.5 7.5 0 1 0 -15 0zM127.5 75 a7.5 7.5 0 1 0 15 0 a7.5 7.5 0 1 0 -15 0zM97.5 75 a7.5 7.5 0 1 0 15 0 a7.5 7.5 0 1 0 -15 0z" fill="url(&quot;#SvgjsLinearGradient1085&quot;)"></path></g></g><defs><mask id="SvgjsMask1084"><rect width="1000" height="560" fill="#ffffff"></rect></mask><linearGradient x1="0" y1="280" x2="890" y2="280" gradientUnits="userSpaceOnUse" id="SvgjsLinearGradient1085"><stop stop-color="rgba(255, 1, 79, 1)" offset="0.88"></stop><stop stop-color="rgba(255, 1, 79, 1)" offset="1"></stop></linearGradient><mask id="SvgjsMask1086"><rect width="1000" height="560" fill="white"></rect><path d="M281.25 315 a3.75 3.75 0 1 0 7.5 0 a3.75 3.75 0 1 0 -7.5 0zM131.25 255 a3.75 3.75 0 1 0 7.5 0 a3.75 3.75 0 1 0 -7.5 0zM341.25 285 a3.75 3.75 0 1 0 7.5 0 a3.75 3.75 0 1 0 -7.5 0zM191.25 285 a3.75 3.75 0 1 0 7.5 0 a3.75 3.75 0 1 0 -7.5 0z" fill="black"></path><path d="M41.25 225 a3.75 3.75 0 1 0 7.5 0 a3.75 3.75 0 1 0 -7.5 0z" fill="black"></path><path d="M821.25 405 a3.75 3.75 0 1 0 7.5 0 a3.75 3.75 0 1 0 -7.5 0zM551.25 375 a3.75 3.75 0 1 0 7.5 0 a3.75 3.75 0 1 0 -7.5 0zM791.25 255 a3.75 3.75 0 1 0 7.5 0 a3.75 3.75 0 1 0 -7.5 0zM71.25 345 a3.75 3.75 0 1 0 7.5 0 a3.75 3.75 0 1 0 -7.5 0zM581.25 405 a3.75 3.75 0 1 0 7.5 0 a3.75 3.75 0 1 0 -7.5 0zM461.25 285 a3.75 3.75 0 1 0 7.5 0 a3.75 3.75 0 1 0 -7.5 0zM821.25 465 a3.75 3.75 0 1 0 7.5 0 a3.75 3.75 0 1 0 -7.5 0zM761.25 375 a3.75 3.75 0 1 0 7.5 0 a3.75 3.75 0 1 0 -7.5 0z" fill="black"></path><path d="M401.25 195 a3.75 3.75 0 1 0 7.5 0 a3.75 3.75 0 1 0 -7.5 0zM191.25 195 a3.75 3.75 0 1 0 7.5 0 a3.75 3.75 0 1 0 -7.5 0zM401.25 225 a3.75 3.75 0 1 0 7.5 0 a3.75 3.75 0 1 0 -7.5 0zM161.25 195 a3.75 3.75 0 1 0 7.5 0 a3.75 3.75 0 1 0 -7.5 0z" fill="black"></path><path d="M311.25 375 a3.75 3.75 0 1 0 7.5 0 a3.75 3.75 0 1 0 -7.5 0zM341.25 405 a3.75 3.75 0 1 0 7.5 0 a3.75 3.75 0 1 0 -7.5 0zM281.25 405 a3.75 3.75 0 1 0 7.5 0 a3.75 3.75 0 1 0 -7.5 0zM41.25 345 a3.75 3.75 0 1 0 7.5 0 a3.75 3.75 0 1 0 -7.5 0z" fill="black"></path><path d="M371.25 135 a3.75 3.75 0 1 0 7.5 0 a3.75 3.75 0 1 0 -7.5 0zM401.25 135 a3.75 3.75 0 1 0 7.5 0 a3.75 3.75 0 1 0 -7.5 0zM341.25 75 a3.75 3.75 0 1 0 7.5 0 a3.75 3.75 0 1 0 -7.5 0zM251.25 105 a3.75 3.75 0 1 0 7.5 0 a3.75 3.75 0 1 0 -7.5 0z" fill="black"></path><path d="M221.25 405 a3.75 3.75 0 1 0 7.5 0 a3.75 3.75 0 1 0 -7.5 0zM161.25 495 a3.75 3.75 0 1 0 7.5 0 a3.75 3.75 0 1 0 -7.5 0zM161.25 435 a3.75 3.75 0 1 0 7.5 0 a3.75 3.75 0 1 0 -7.5 0zM281.25 435 a3.75 3.75 0 1 0 7.5 0 a3.75 3.75 0 1 0 -7.5 0z" fill="black"></path><path d="M281.25 75 a3.75 3.75 0 1 0 7.5 0 a3.75 3.75 0 1 0 -7.5 0zM191.25 75 a3.75 3.75 0 1 0 7.5 0 a3.75 3.75 0 1 0 -7.5 0zM131.25 75 a3.75 3.75 0 1 0 7.5 0 a3.75 3.75 0 1 0 -7.5 0zM101.25 75 a3.75 3.75 0 1 0 7.5 0 a3.75 3.75 0 1 0 -7.5 0z" fill="black"></path></mask></defs></svg>