<svg xmlns="http://www.w3.org/2000/svg" version="1.1" xmlns:xlink="http://www.w3.org/1999/xlink" xmlns:svgjs="http://svgjs.dev/svgjs" width="1440" height="560" preserveAspectRatio="none" viewBox="0 0 1440 560"><g mask="url(&quot;#SvgjsMask1009&quot;)" fill="none"><path d="M1512 560L0 560 L0 315.22Q27.72 270.94, 72 298.66Q122.48 277.14, 144 327.63Q174.47 286.1, 216 316.57Q258.99 239.56, 336 282.55Q381.59 256.14, 408 301.74Q502.63 276.38, 528 371.01Q564.35 287.36, 648 323.71Q693.56 249.26, 768 294.82Q847.68 254.5, 888 334.19Q934.65 260.84, 1008 307.48Q1035.56 263.03, 1080 290.59Q1171.73 262.32, 1200 354.05Q1243.59 325.64, 1272 369.23Q1310.29 287.52, 1392 325.81Q1457.67 271.48, 1512 337.15z" fill="rgba(255, 1, 79, 1)"></path><path d="M1560 560L0 560 L0 431.67Q5.95 365.62, 72 371.57Q126.63 306.19, 192 360.82Q242.67 339.49, 264 390.15Q313.47 367.62, 336 417.08Q351.19 360.27, 408 375.46Q435.67 331.13, 480 358.79Q558.32 317.11, 600 395.42Q642.07 365.49, 672 407.55Q713.83 329.38, 792 371.21Q864.49 323.7, 912 396.19Q941.13 353.32, 984 382.45Q1068.84 347.28, 1104 432.12Q1130.58 386.69, 1176 413.27Q1222.95 340.22, 1296 387.17Q1357.59 376.75, 1368 438.34Q1369.97 368.31, 1440 370.28Q1494.72 305, 1560 359.73z" fill="rgba(255, 255, 255, 1)"></path><path d="M1560 560L0 560 L0 469.8Q42.29 440.09, 72 482.37Q104.35 394.72, 192 427.06Q266.1 381.16, 312 455.27Q371.17 442.44, 384 501.61Q404.63 402.24, 504 422.87Q580.05 378.92, 624 454.97Q701.41 412.38, 744 489.8Q815.72 441.52, 864 513.25Q894.4 471.65, 936 502.06Q961.34 407.39, 1056 432.73Q1133.72 390.45, 1176 468.16Q1228.05 400.21, 1296 452.26Q1355.06 439.32, 1368 498.38Q1386.89 445.27, 1440 464.17Q1522.72 426.89, 1560 509.62z" fill="rgba(255, 1, 79, 1)"></path><path d="M1464 560L0 560 L0 555.38Q59.02 494.4, 120 553.42Q172.24 533.66, 192 585.9Q226.72 500.62, 312 535.33Q338.3 489.63, 384 515.93Q464.83 476.76, 504 557.59Q553.72 535.31, 576 585.03Q578.51 515.54, 648 518.06Q701.66 451.72, 768 505.38Q796.53 461.91, 840 490.44Q896.31 474.75, 912 531.05Q968.25 515.29, 984 571.54Q1034.67 502.21, 1104 552.88Q1154.61 483.49, 1224 534.1Q1278.97 469.07, 1344 524.04Q1417.62 477.66, 1464 551.28z" fill="white"></path></g><defs><mask id="SvgjsMask1009"><rect width="1440" height="560" fill="#ffffff"></rect></mask></defs></svg>