<svg xmlns="http://www.w3.org/2000/svg" version="1.1" xmlns:xlink="http://www.w3.org/1999/xlink" xmlns:svgjs="http://svgjs.dev/svgjs" width="1468" height="500" preserveAspectRatio="none" viewBox="0 0 1468 500"><g mask="url(&quot;#SvgjsMask1007&quot;)" fill="none"><path d="M -434.22259349480953,74 C -375.42,143.4 -257.82,423.8 -140.22259349480956,421 C -22.62,418.2 36.18,63 153.77740650519044,60 C 271.38,57 330.18,397.6 447.77740650519047,406 C 565.38,414.4 624.18,126 741.7774065051905,102 C 859.38,78 918.18,274.2 1035.7774065051904,286 C 1153.38,297.8 1243.33,165 1329.7774065051904,161 C 1416.22,157 1440.36,245 1468,266" stroke="rgba(255, 1, 79, 1)" stroke-width="2"></path><path d="M -482.3072991512611,330 C -423.51,283.4 -305.91,82.8 -188.30729915126108,97 C -70.71,111.2 -11.91,397.4 105.69270084873892,401 C 223.29,404.6 282.09,103.8 399.6927008487389,115 C 517.29,126.2 576.09,441.6 693.6927008487389,457 C 811.29,472.4 870.09,191.4 987.6927008487389,192 C 1105.29,192.6 1185.63,449.8 1281.692700848739,460 C 1377.75,470.2 1430.74,286.4 1468,243" stroke="rgba(255, 1, 79, 1)" stroke-width="2"></path></g><defs><mask id="SvgjsMask1007"><rect width="1468" height="500" fill="#ffffff"></rect></mask></defs></svg>