<svg xmlns="http://www.w3.org/2000/svg" version="1.1" xmlns:xlink="http://www.w3.org/1999/xlink" xmlns:svgjs="http://svgjs.dev/svgjs" width="1340" height="760" preserveAspectRatio="none" viewBox="0 0 1340 760"><g mask="url(&quot;#SvgjsMask1000&quot;)" fill="none"><path d="M406.68 890.47C561.47 767.63 457.19 186.16 733.71 170.88 1010.22 155.6 1216.4 373.69 1387.76 376.08" stroke="rgba(255, 1, 79, 1)" stroke-width="2"></path><path d="M300.56 849.6C460.21 835.24 531.05 524.84 840.68 504.11 1150.31 483.38 1230.45 245.19 1380.8 238.11" stroke="rgba(255, 1, 79, 1)" stroke-width="2"></path><path d="M720.16 799.79C852.98 666.04 747.79 116.47 983.94 93.45 1220.09 70.43 1371.97 273.3 1511.5 275.85" stroke="rgba(255, 1, 79, 1)" stroke-width="2"></path><path d="M47.11 827.87C233.6 816.13 370.38 467.12 701.38 466.53 1032.38 465.94 1187.29 624.98 1355.65 626.13" stroke="rgba(255, 1, 79, 1)" stroke-width="2"></path><path d="M592.85 842.66C723.24 832.88 783.83 593.88 1042.69 575.85 1301.55 557.82 1364.04 333.33 1492.53 325.05" stroke="rgba(255, 1, 79, 1)" stroke-width="2"></path></g><defs><mask id="SvgjsMask1000"><rect width="1340" height="760" fill="#ffffff"></rect></mask></defs></svg>