<svg xmlns="http://www.w3.org/2000/svg" version="1.1" xmlns:xlink="http://www.w3.org/1999/xlink" xmlns:svgjs="http://svgjs.dev/svgjs" width="1440" height="560" preserveAspectRatio="none" viewBox="0 0 1440 560"><g mask="url(&quot;#SvgjsMask1391&quot;)" fill="none"><path d="M246.79 178.08L403.54 268.58L403.54 449.58L246.79 540.08L90.03 449.58L90.03 268.58zM717.05 449.58L873.81 540.08L873.81 721.08L717.05 811.58L560.3 721.08L560.3 540.08zM1187.32 178.08L1344.07 268.58L1344.07 449.58L1187.32 540.08L1030.56 449.58L1030.56 268.58z" stroke="rgba(255, 1, 79, 1)" stroke-width="2"></path><path d="M228.69 178.08 a18.1 18.1 0 1 0 36.2 0 a18.1 18.1 0 1 0 -36.2 0zM385.44 268.58 a18.1 18.1 0 1 0 36.2 0 a18.1 18.1 0 1 0 -36.2 0zM385.44 449.58 a18.1 18.1 0 1 0 36.2 0 a18.1 18.1 0 1 0 -36.2 0zM228.69 540.08 a18.1 18.1 0 1 0 36.2 0 a18.1 18.1 0 1 0 -36.2 0zM71.93 449.58 a18.1 18.1 0 1 0 36.2 0 a18.1 18.1 0 1 0 -36.2 0zM71.93 268.58 a18.1 18.1 0 1 0 36.2 0 a18.1 18.1 0 1 0 -36.2 0zM698.95 449.58 a18.1 18.1 0 1 0 36.2 0 a18.1 18.1 0 1 0 -36.2 0zM855.71 540.08 a18.1 18.1 0 1 0 36.2 0 a18.1 18.1 0 1 0 -36.2 0zM855.71 721.08 a18.1 18.1 0 1 0 36.2 0 a18.1 18.1 0 1 0 -36.2 0zM698.95 811.58 a18.1 18.1 0 1 0 36.2 0 a18.1 18.1 0 1 0 -36.2 0zM542.2 721.08 a18.1 18.1 0 1 0 36.2 0 a18.1 18.1 0 1 0 -36.2 0zM542.2 540.08 a18.1 18.1 0 1 0 36.2 0 a18.1 18.1 0 1 0 -36.2 0zM1169.22 178.08 a18.1 18.1 0 1 0 36.2 0 a18.1 18.1 0 1 0 -36.2 0zM1325.97 268.58 a18.1 18.1 0 1 0 36.2 0 a18.1 18.1 0 1 0 -36.2 0zM1325.97 449.58 a18.1 18.1 0 1 0 36.2 0 a18.1 18.1 0 1 0 -36.2 0zM1169.22 540.08 a18.1 18.1 0 1 0 36.2 0 a18.1 18.1 0 1 0 -36.2 0zM1012.46 449.58 a18.1 18.1 0 1 0 36.2 0 a18.1 18.1 0 1 0 -36.2 0zM1012.46 268.58 a18.1 18.1 0 1 0 36.2 0 a18.1 18.1 0 1 0 -36.2 0z" fill="rgba(255, 1, 79, 1)"></path><path d="M199.15 514.77L372.36 614.77L372.36 814.77L199.15 914.77L25.94 814.77L25.94 614.77zM891.99 514.77L1065.2 614.77L1065.2 814.77L891.99 914.77L718.78 814.77L718.78 614.77zM1411.62 214.77L1584.83 314.77L1584.83 514.77L1411.62 614.77L1238.41 514.77L1238.41 314.77zM1584.83 514.77L1758.04 614.77L1758.04 814.77L1584.83 914.77L1411.62 814.77L1411.62 614.77z" stroke="rgba(255, 1, 79, 1)" stroke-width="2"></path></g><defs><mask id="SvgjsMask1391"><rect width="1440" height="560" fill="#ffffff"></rect></mask></defs></svg>