  <svg
              xmlns="http://www.w3.org/2000/svg"
              version="1.1"
              xmlns:xlink="http://www.w3.org/1999/xlink"
              xmlns:svgjs="http://svgjs.dev/svgjs"
              width="1440"
              height="560"
              preserveAspectRatio="none"
              viewBox="0 0 1440 560"
            >
              <g mask='url("#SvgjsMask1415")' fill="none">
                <use
                  xlink:href="#SvgjsG1427"
                  transform="translate(0, 0)"
                  fill="rgba(255, 1, 79, 1)"
                  opacity="0.5"
                ></use>
              </g>
              <defs>
                <mask id="SvgjsMask1415">
                  <rect width="1440" height="560" fill="#ffffff"></rect>
                </mask>
                <g id="SvgjsG1418">
                  <path d="M7.71 15.48C3.46 15.49 0 12.03 0 7.77 0 3.51 3.46 0.05 7.71 0.05S15.43 3.51 15.43 7.77c0 4.26-3.46 7.72-7.72 7.71z m0-1.91c3.2 0 5.81-2.6 5.81-5.8 0-3.2-2.61-5.81-5.81-5.81-3.2 0-5.8 2.61-5.8 5.81 0 3.21 2.6 5.81 5.8 5.8z"></path>
                  <path d="M7.75 8.79a0.57 0.57 0 0 1-0.55-0.04 0.58 0.58 0 0 1-0.26-0.4L6.93 3.86a0.58 0.58 0 0 1 1.16 0l0 3.48 2.98-1.4a0.58 0.58 0 0 1 0.77 0.27c0.14 0.29 0.01 0.64-0.27 0.78l-3.81 1.8z"></path>
                </g>
                <g>
                  <path d="M15.23 9.43c0.29 0 0.57-0.24 0.61-0.53 0 0 0.06-0.41 0.06-0.9s-0.06-0.9-0.06-0.9c-0.04-0.29-0.32-0.53-0.61-0.53l-1.52 0c-0.29 0-0.6-0.19-0.68-0.42s-0.19-0.97 0.02-1.17l1.08-1.08c0.21-0.21 0.22-0.56 0.03-0.79l-1.27-1.27c-0.23-0.19-0.58-0.17-0.79 0.04l-1.08 1.07c-0.21 0.21-0.56 0.29-0.77 0.19s-0.82-0.55-0.82-0.85V0.77c0-0.29-0.24-0.57-0.53-0.61 0 0-0.41-0.06-0.9-0.06s-0.9 0.06-0.9 0.06c-0.29 0.04-0.53 0.32-0.53 0.61l0 1.52c0 0.29-0.19 0.6-0.42 0.68s-0.97 0.19-1.17-0.02l-1.08-1.08C3.69 1.67 3.33 1.65 3.11 1.84l-1.27 1.27c-0.19 0.23-0.17 0.58 0.03 0.79l1.08 1.08c0.21 0.21 0.29 0.56 0.19 0.77s-0.55 0.82-0.85 0.82L0.77 6.57c-0.29 0-0.57 0.24-0.61 0.53 0 0-0.06 0.41-0.06 0.9s0.06 0.9 0.06 0.9c0.04 0.29 0.32 0.53 0.61 0.53l1.52 0c0.29 0 0.6 0.19 0.68 0.42 0.08 0.23 0.19 0.97-0.02 1.17l-1.07 1.08C1.67 12.31 1.65 12.67 1.84 12.89l1.27 1.27c0.23 0.19 0.58 0.17 0.79-0.03l1.08-1.08c0.21-0.21 0.56-0.29 0.77-0.19s0.82 0.55 0.82 0.85l0 1.52c0 0.29 0.24 0.57 0.53 0.61 0 0 0.41 0.06 0.9 0.06s0.9-0.06 0.9-0.06c0.29-0.04 0.53-0.32 0.53-0.61l0-1.52c0-0.29 0.19-0.6 0.42-0.68 0.23-0.08 0.97-0.19 1.18 0.02l1.07 1.08c0.21 0.21 0.56 0.22 0.8 0.03l1.26-1.26c0.19-0.23 0.17-0.58-0.03-0.8l-1.08-1.07c-0.21-0.21-0.29-0.56-0.19-0.78 0.11-0.22 0.55-0.82 0.85-0.82l1.52 0zM8 10.89c-1.6 0-2.89-1.29-2.89-2.89 0-1.6 1.29-2.89 2.89-2.89S10.89 6.4 10.89 8 9.6 10.89 8 10.89z"></path>
                </g>
                <g id="SvgjsG1416">
                  <path d="M7.45 12.65S6.4 11.12 3.73 11.12C1.27 11.12 0 11.83 0 11.83L0 1.94s1.27-0.71 3.72-0.73C6.4 1.19 7.45 2.76 7.45 2.76L7.45 12.65z m1.09 0s1.05-1.53 3.72-1.53c2.45 0 3.73 0.71 3.73 0.71L15.99 1.94s-1.27-0.71-3.73-0.73c-2.67-0.02-3.72 1.55-3.72 1.55l0 9.89z"></path>
                  <path d="M8.01 15.73S6.4 13.41 3.73 13.41c-2.45 0-3.73 0.71-3.73 0.71l0-1.18s1.27-0.71 3.73-0.73c2.67-0.02 4.29 2.34 4.28 2.34V15.73z m0 0s1.61-2.32 4.29-2.32c2.45 0 3.73 0.71 3.72 0.71l0-1.18s-1.27-0.71-3.72-0.73c-2.67-0.02-4.29 2.34-4.29 2.34l0 1.18z"></path>
                </g>
                <g>
                  <path
                    d="M13.03 12.69L13.03 1.87 9.96 1.87 9.97 0.07C9.96 0.08 4.19 2.65 4.19 2.65 3.26 3.1 2.92 3.75 2.92 4.63L2.92 13.35c0 1.39 1.12 2.53 2.4 2.53l7.74-0.01V14.27c-0.95-0.12-0.95-1.47-0.03-1.58z m-7.75 1.42c-0.85 0-0.84-1.19 0-1.19l5.4-0.01c-0.37 0.28-0.35 0.94 0.05 1.2H5.28z m6.02-2.89L6.58 11.22l3.38-1.52V3.63l1.34 0 0 7.59 0 0z"
                    fill-rule="evenodd"
                  ></path>
                </g>
                <g id="SvgjsG1426">
                  <path d="M9.41 5.11c1.27 0 2.38 0.7 2.99 1.74l3.6 0 0-1.95c0-0.72-0.58-1.31-1.3-1.31L1.29 3.59C0.58 3.59 0 4.18 0 4.9l0 1.93 6.42 0.01c0.61-1.03 1.71-1.73 2.99-1.73M3.36 2.97l-1.19 0-0.14 0.43 1.43 0-0.1-0.43zM14.11 2.74l-1.59 0L12.24 3.41 14.37 3.41l-0.26-0.67zM8.66 3.18l-1.36 0V2.51l1.36 0 0 0.67zM9.91 2.24l-3.85 0-0.8 1.18 5.38 0L9.91 2.24z m2.68 4.95c0.2 0.44 0.32 0.93 0.31 1.45 0 1.95-1.56 3.53-3.49 3.53-1.93 0-3.49-1.58-3.49-3.53 0-0.52 0.12-1.01 0.31-1.45L0 7.19 0 12.51c0 0.72 0.58 1.31 1.3 1.31l13.4 0c0.72 0 1.3-0.59 1.3-1.31L16 7.19 12.59 7.19z"></path>
                  <path d="M11.31 7.48a1.72 1.72 0 0 0-0.19-0.27c-0.41-0.5-1.02-0.82-1.71-0.83-0.69 0-1.3 0.32-1.71 0.82-0.07 0.09-0.14 0.18-0.2 0.28-0.2 0.34-0.33 0.73-0.33 1.16 0 1.25 1 2.26 2.24 2.26 1.23 0 2.23-1.01 2.23-2.26 0-0.43-0.12-0.82-0.33-1.16"></path>
                </g>
                <g id="SvgjsG1422">
                  <path d="M15.07 12.15L0.02 12.15c0 1.33 1.02 1.95 1.83 1.95l11.39 0c0.97 0 1.83-0.77 1.82-1.95zM12.85 2.17L1.87 2.17l0 7.2c0 0.98 0.84 1.75 1.75 1.75l7.13 0c1.03 0 1.73-0.86 1.73-1.75V8.77c2.03 0 3.5-1.53 3.5-3.3 0-1.81-1.45-3.3-3.13-3.3z m1.83 3.3c0 1.04-0.76 2.02-2.21 1.93L12.47 3.52l0.38 0 0 0c1.39 0 1.84 1.32 1.83 1.95l0 0z"></path>
                </g>
                <g id="SvgjsG1424">
                  <path d="M15.82 2.87L8 9.06 0.18 2.87z m0 8.86L11.12 8l4.7-3.73zM0.16 4.27l4.7 3.73L0.16 11.74z"></path>
                  <path d="M10.26 8.66L8.01 10.43 5.77 8.66 0.18 13.07l15.66 0z"></path>
                </g>
                <g id="SvgjsG1417">
                  <path
                    d="M1.32 13.81l14.02 0L15.33 3.17 1.32 3.18l0 10.63z m12.3-9.64L9.14 8.63c-0.46 0.46-1.27 0.45-1.73-0.01l-4.45-4.45 10.65 0z m-11.31 0.69l3.62 3.64-3.63 3.64 0-7.28z m0.65 7.97l3.64-3.63 0.16 0.14c0.86 0.82 2.23 0.82 3.05 0l0.15-0.15 3.67 3.64-10.67 0z m11.36-0.69L10.68 8.5 14.31 4.86 14.31 12.14z"
                    fill-rule="evenodd"
                  ></path>
                </g>
                <g id="SvgjsG1419">
                  <path d="M15.98 13.86L11.69 9.57a6.3 6.3 0 1 0-5.38 3.04 6.26 6.26 0 0 0 3.26-0.92l4.29 4.3L15.98 13.86zM2.41 6.31a3.91 3.91 0 0 1 3.9-3.9 3.91 3.91 0 0 1 3.9 3.9 3.9 3.9 0 0 1-7.8 0z"></path>
                </g>
                <g id="SvgjsG1423">
                  <path
                    d="M8 1.08C3.59 1.08 0.02 3.77 0.02 7.09c0 1.63 0.86 3.1 2.25 4.18l0 3.61 4.17-1.9c0.5 0.07 1.02 0.11 1.56 0.12 4.41 0 7.98-2.69 7.98-6.01C15.98 3.77 12.41 1.08 8 1.08z"
                    fill-rule="evenodd"
                  ></path>
                </g>
                <g id="SvgjsG1425">
                  <path
                    d="M2.71 11.39H2.7l0 2.51c0.57-0.39 3.61-2.3 4-2.48l4.42 0c1.53 0 2.77-1.24 2.77-2.77L13.89 2.9A2.77 2.77 0 0 0 11.12 0.14l-8.07 0c-1.52 0-2.77 1.23-2.76 2.77l0 5.74a2.77 2.77 0 0 0 2.42 2.75z"
                    fill-rule="evenodd"
                  ></path>
                </g>
                <g>
                  <path d="M8 2.02C3.81 2.02 0.42 4.58 0.42 7.73c0 1.54 0.81 2.94 2.14 3.98l0 3.42 3.96-1.8c0.48 0.07 0.97 0.11 1.48 0.11 4.18 0 7.58-2.56 7.58-5.71 0-3.15-3.39-5.71-7.58-5.71zM4.81 8.93a1.07 1.07 0 1 1 0-2.13 1.07 1.07 0 0 1 0 2.13z m3.19 0a1.07 1.07 0 1 1 0-2.13 1.07 1.07 0 0 1 0 2.13z m3.14 0c-0.59 0-1.07-0.48-1.07-1.06s0.48-1.07 1.07-1.07 1.07 0.48 1.07 1.07a1.07 1.07 0 0 1-1.07 1.06z"></path>
                </g>
                <g id="SvgjsG1421">
                  <path
                    d="M3.54 11.6l4.03 0c0.39 0.18 3.81 2.58 4.38 2.97l0.01-2.99-0.02 0a2.76 2.76 0 0 0 2.42-2.74L14.36 3.09c0-1.53-1.23-2.77-2.76-2.77L3.54 0.33c-1.53 0-2.77 1.24-2.77 2.76l0 5.75c0 1.52 1.24 2.77 2.77 2.76z"
                    fill-rule="evenodd"
                  ></path>
                </g>
                <g id="SvgjsG1420">
                  <path d="M14.14 13.38L8 1.28 1.86 13.39H0l0 1.34 16 0 0-1.35H14.14z m-8.75 0L8 8.35l2.61 5.04H5.39z"></path>
                </g>
                <g>
                  <path d="M14.55 5.95L13.24 2.56C12.99 1.92 12.45 1.36 11.44 1.36L4.55 1.36c-1.01 0.01-1.55 0.56-1.8 1.21l-1.31 3.38C0.92 6.02 0 6.63 0 7.79L0 12.1l1.28 0 0 1.38c0 1.7 2.4 1.68 2.4 0V12.1l8.63 0 0 1.38c0.01 1.68 2.41 1.7 2.41 0V12.1l1.28 0V7.79c0-1.16-0.93-1.77-1.45-1.84zM2.52 9.5c-0.61 0-1.11-0.51-1.11-1.14 0-0.63 0.49-1.15 1.11-1.14 0.61-0.01 1.11 0.51 1.1 1.14 0 0.63-0.5 1.14-1.1 1.14zM8 5.92L2.81 5.92l0.99-2.67c0.12-0.38 0.3-0.65 0.74-0.65L11.46 2.6c0.43 0.01 0.62 0.28 0.74 0.65l0.99 2.67L8 5.92z m5.48 3.58c-0.62 0-1.12-0.51-1.11-1.14 0-0.63 0.5-1.15 1.11-1.14 0.61-0.01 1.1 0.51 1.11 1.14 0 0.63-0.5 1.14-1.11 1.14z"></path>
                </g>
                <g id="SvgjsG1427">
                  <use
                    xlink:href="#SvgjsG1416"
                    transform="translate(0, 0) scale(3)"
                    fill="rgba(255, 1, 79, 1)"
                    opacity="0.5"
                  ></use>
                  <use
                    xlink:href="#SvgjsG1417"
                    transform="translate(0, 192) scale(3)"
                    fill="rgba(255, 1, 79, 1)"
                    opacity="0.5"
                  ></use>
                  <use
                    xlink:href="#SvgjsG1418"
                    transform="translate(0, 384) scale(3)"
                    fill="rgba(255, 1, 79, 1)"
                    opacity="0.5"
                  ></use>
                  <use
                    xlink:href="#SvgjsG1419"
                    transform="translate(192, 0) scale(3)"
                    fill="rgba(255, 1, 79, 1)"
                    opacity="0.5"
                  ></use>
                  <use
                    xlink:href="#SvgjsG1420"
                    transform="translate(192, 192) scale(3)"
                    fill="rgba(255, 1, 79, 1)"
                    opacity="0.5"
                  ></use>
                  <use
                    xlink:href="#SvgjsG1421"
                    transform="translate(192, 384) scale(3)"
                    fill="rgba(255, 1, 79, 1)"
                    opacity="0.5"
                  ></use>
                  <use
                    xlink:href="#SvgjsG1421"
                    transform="translate(384, 0) scale(3)"
                    fill="rgba(255, 1, 79, 1)"
                    opacity="0.5"
                  ></use>
                  <use
                    xlink:href="#SvgjsG1422"
                    transform="translate(384, 192) scale(3)"
                    fill="rgba(255, 1, 79, 1)"
                    opacity="0.5"
                  ></use>
                  <use
                    xlink:href="#SvgjsG1423"
                    transform="translate(384, 384) scale(3)"
                    fill="rgba(255, 1, 79, 1)"
                    opacity="0.5"
                  ></use>
                  <use
                    xlink:href="#SvgjsG1418"
                    transform="translate(576, 0) scale(3)"
                    fill="rgba(255, 1, 79, 1)"
                    opacity="0.5"
                  ></use>
                  <use
                    xlink:href="#SvgjsG1424"
                    transform="translate(576, 192) scale(3)"
                    fill="rgba(255, 1, 79, 1)"
                    opacity="0.5"
                  ></use>
                  <use
                    xlink:href="#SvgjsG1419"
                    transform="translate(576, 384) scale(3)"
                    fill="rgba(255, 1, 79, 1)"
                    opacity="0.5"
                  ></use>
                  <use
                    xlink:href="#SvgjsG1416"
                    transform="translate(768, 0) scale(3)"
                    fill="rgba(255, 1, 79, 1)"
                    opacity="0.5"
                  ></use>
                  <use
                    xlink:href="#SvgjsG1424"
                    transform="translate(768, 192) scale(3)"
                    fill="rgba(255, 1, 79, 1)"
                    opacity="0.5"
                  ></use>
                  <use
                    xlink:href="#SvgjsG1417"
                    transform="translate(768, 384) scale(3)"
                    fill="rgba(255, 1, 79, 1)"
                    opacity="0.5"
                  ></use>
                  <use
                    xlink:href="#SvgjsG1418"
                    transform="translate(960, 0) scale(3)"
                    fill="rgba(255, 1, 79, 1)"
                    opacity="0.5"
                  ></use>
                  <use
                    xlink:href="#SvgjsG1423"
                    transform="translate(960, 192) scale(3)"
                    fill="rgba(255, 1, 79, 1)"
                    opacity="0.5"
                  ></use>
                  <use
                    xlink:href="#SvgjsG1418"
                    transform="translate(960, 384) scale(3)"
                    fill="rgba(255, 1, 79, 1)"
                    opacity="0.5"
                  ></use>
                  <use
                    xlink:href="#SvgjsG1417"
                    transform="translate(1152, 0) scale(3)"
                    fill="rgba(255, 1, 79, 1)"
                    opacity="0.5"
                  ></use>
                  <use
                    xlink:href="#SvgjsG1416"
                    transform="translate(1152, 192) scale(3)"
                    fill="rgba(255, 1, 79, 1)"
                    opacity="0.5"
                  ></use>
                  <use
                    xlink:href="#SvgjsG1425"
                    transform="translate(1152, 384) scale(3)"
                    fill="rgba(255, 1, 79, 1)"
                    opacity="0.5"
                  ></use>
                  <use
                    xlink:href="#SvgjsG1424"
                    transform="translate(1344, 0) scale(3)"
                    fill="rgba(255, 1, 79, 1)"
                    opacity="0.5"
                  ></use>
                  <use
                    xlink:href="#SvgjsG1424"
                    transform="translate(1344, 192) scale(3)"
                    fill="rgba(255, 1, 79, 1)"
                    opacity="0.5"
                  ></use>
                  <use
                    xlink:href="#SvgjsG1426"
                    transform="translate(1344, 384) scale(3)"
                    fill="rgba(255, 1, 79, 1)"
                    opacity="0.5"
                  ></use>
                </g>
              </defs>
            </svg>