<svg xmlns="http://www.w3.org/2000/svg" version="1.1" xmlns:xlink="http://www.w3.org/1999/xlink" xmlns:svgjs="http://svgjs.dev/svgjs" width="1440" height="560" preserveAspectRatio="none" viewBox="0 0 1440 560"><g mask="url(&quot;#SvgjsMask1066&quot;)" fill="none"><path d="M-56.39 387.32L-56.39 387.32" stroke="rgba(255, 1, 79, 1)" stroke-width="1.5"></path><path d="M-56.39 387.32L78.07 339.92" stroke="rgba(255, 1, 79, 1)" stroke-width="1.5"></path><path d="M-56.39 387.32L-99.08 526.64" stroke="rgba(255, 1, 79, 1)" stroke-width="1.5"></path><path d="M-56.39 387.32L103.85 506.9" stroke="rgba(255, 1, 79, 1)" stroke-width="1.5"></path><path d="M-56.39 387.32L201.07 411.33" stroke="rgba(255, 1, 79, 1)" stroke-width="1.5"></path><path d="M-56.39 387.32L-65.2 651.19" stroke="rgba(255, 1, 79, 1)" stroke-width="1.5"></path><path d="M-56.39 387.32L241.23 520.15" stroke="rgba(255, 1, 79, 1)" stroke-width="1.5"></path><path d="M-99.08 526.64L-99.08 526.64" stroke="rgba(255, 1, 79, 1)" stroke-width="1.5"></path><path d="M-99.08 526.64L-65.2 651.19" stroke="rgba(255, 1, 79, 1)" stroke-width="1.5"></path><path d="M-99.08 526.64L103.85 506.9" stroke="rgba(255, 1, 79, 1)" stroke-width="1.5"></path><path d="M-65.2 651.19L-65.2 651.19" stroke="rgba(255, 1, 79, 1)" stroke-width="1.5"></path><path d="M-65.2 651.19L103.85 506.9" stroke="rgba(255, 1, 79, 1)" stroke-width="1.5"></path><path d="M-65.2 651.19L199.53 697.91" stroke="rgba(255, 1, 79, 1)" stroke-width="1.5"></path><path d="M78.07 339.92L78.07 339.92" stroke="rgba(255, 1, 79, 1)" stroke-width="1.5"></path><path d="M78.07 339.92L201.07 411.33" stroke="rgba(255, 1, 79, 1)" stroke-width="1.5"></path><path d="M78.07 339.92L103.85 506.9" stroke="rgba(255, 1, 79, 1)" stroke-width="1.5"></path><path d="M78.07 339.92L241.23 520.15" stroke="rgba(255, 1, 79, 1)" stroke-width="1.5"></path><path d="M78.07 339.92L-99.08 526.64" stroke="rgba(255, 1, 79, 1)" stroke-width="1.5"></path><path d="M103.85 506.9L103.85 506.9" stroke="rgba(255, 1, 79, 1)" stroke-width="1.5"></path><path d="M103.85 506.9L201.07 411.33" stroke="rgba(255, 1, 79, 1)" stroke-width="1.5"></path><path d="M103.85 506.9L241.23 520.15" stroke="rgba(255, 1, 79, 1)" stroke-width="1.5"></path><path d="M201.07 411.33L201.07 411.33" stroke="rgba(255, 1, 79, 1)" stroke-width="1.5"></path><path d="M201.07 411.33L241.23 520.15" stroke="rgba(255, 1, 79, 1)" stroke-width="1.5"></path><path d="M201.07 411.33L374.03 351.39" stroke="rgba(255, 1, 79, 1)" stroke-width="1.5"></path><path d="M241.23 520.15L241.23 520.15" stroke="rgba(255, 1, 79, 1)" stroke-width="1.5"></path><path d="M199.53 697.91L199.53 697.91" stroke="rgba(255, 1, 79, 1)" stroke-width="1.5"></path><path d="M199.53 697.91L241.23 520.15" stroke="rgba(255, 1, 79, 1)" stroke-width="1.5"></path><path d="M199.53 697.91L103.85 506.9" stroke="rgba(255, 1, 79, 1)" stroke-width="1.5"></path><path d="M374.03 351.39L374.03 351.39" stroke="rgba(255, 1, 79, 1)" stroke-width="1.5"></path><path d="M374.03 351.39L397.46 495.93" stroke="rgba(255, 1, 79, 1)" stroke-width="1.5"></path><path d="M374.03 351.39L538.73 378.79" stroke="rgba(255, 1, 79, 1)" stroke-width="1.5"></path><path d="M397.46 495.93L397.46 495.93" stroke="rgba(255, 1, 79, 1)" stroke-width="1.5"></path><path d="M397.46 495.93L544.36 496.83" stroke="rgba(255, 1, 79, 1)" stroke-width="1.5"></path><path d="M397.46 495.93L241.23 520.15" stroke="rgba(255, 1, 79, 1)" stroke-width="1.5"></path><path d="M397.46 495.93L538.73 378.79" stroke="rgba(255, 1, 79, 1)" stroke-width="1.5"></path><path d="M397.46 495.93L201.07 411.33" stroke="rgba(255, 1, 79, 1)" stroke-width="1.5"></path><path d="M538.73 378.79L538.73 378.79" stroke="rgba(255, 1, 79, 1)" stroke-width="1.5"></path><path d="M538.73 378.79L544.36 496.83" stroke="rgba(255, 1, 79, 1)" stroke-width="1.5"></path><path d="M538.73 378.79L693.44 379.22" stroke="rgba(255, 1, 79, 1)" stroke-width="1.5"></path><path d="M544.36 496.83L544.36 496.83" stroke="rgba(255, 1, 79, 1)" stroke-width="1.5"></path><path d="M511.04 694.24L511.04 694.24" stroke="rgba(255, 1, 79, 1)" stroke-width="1.5"></path><path d="M511.04 694.24L544.36 496.83" stroke="rgba(255, 1, 79, 1)" stroke-width="1.5"></path><path d="M511.04 694.24L711.44 660.65" stroke="rgba(255, 1, 79, 1)" stroke-width="1.5"></path><path d="M511.04 694.24L397.46 495.93" stroke="rgba(255, 1, 79, 1)" stroke-width="1.5"></path><path d="M511.04 694.24L710.21 526.14" stroke="rgba(255, 1, 79, 1)" stroke-width="1.5"></path><path d="M511.04 694.24L199.53 697.91" stroke="rgba(255, 1, 79, 1)" stroke-width="1.5"></path><path d="M511.04 694.24L538.73 378.79" stroke="rgba(255, 1, 79, 1)" stroke-width="1.5"></path><path d="M653.48 252.55L653.48 252.55" stroke="rgba(255, 1, 79, 1)" stroke-width="1.5"></path><path d="M653.48 252.55L693.44 379.22" stroke="rgba(255, 1, 79, 1)" stroke-width="1.5"></path><path d="M653.48 252.55L801.02 193.44" stroke="rgba(255, 1, 79, 1)" stroke-width="1.5"></path><path d="M653.48 252.55L789.15 347.55" stroke="rgba(255, 1, 79, 1)" stroke-width="1.5"></path><path d="M653.48 252.55L538.73 378.79" stroke="rgba(255, 1, 79, 1)" stroke-width="1.5"></path><path d="M693.44 379.22L693.44 379.22" stroke="rgba(255, 1, 79, 1)" stroke-width="1.5"></path><path d="M693.44 379.22L789.15 347.55" stroke="rgba(255, 1, 79, 1)" stroke-width="1.5"></path><path d="M693.44 379.22L710.21 526.14" stroke="rgba(255, 1, 79, 1)" stroke-width="1.5"></path><path d="M710.21 526.14L710.21 526.14" stroke="rgba(255, 1, 79, 1)" stroke-width="1.5"></path><path d="M710.21 526.14L840.37 557.39" stroke="rgba(255, 1, 79, 1)" stroke-width="1.5"></path><path d="M710.21 526.14L711.44 660.65" stroke="rgba(255, 1, 79, 1)" stroke-width="1.5"></path><path d="M711.44 660.65L711.44 660.65" stroke="rgba(255, 1, 79, 1)" stroke-width="1.5"></path><path d="M711.44 660.65L840.37 557.39" stroke="rgba(255, 1, 79, 1)" stroke-width="1.5"></path><path d="M801.02 193.44L801.02 193.44" stroke="rgba(255, 1, 79, 1)" stroke-width="1.5"></path><path d="M801.02 193.44L789.15 347.55" stroke="rgba(255, 1, 79, 1)" stroke-width="1.5"></path><path d="M801.02 193.44L970.69 213.36" stroke="rgba(255, 1, 79, 1)" stroke-width="1.5"></path><path d="M801.02 193.44L693.44 379.22" stroke="rgba(255, 1, 79, 1)" stroke-width="1.5"></path><path d="M789.15 347.55L789.15 347.55" stroke="rgba(255, 1, 79, 1)" stroke-width="1.5"></path><path d="M840.37 557.39L840.37 557.39" stroke="rgba(255, 1, 79, 1)" stroke-width="1.5"></path><path d="M840.37 557.39L994.26 539.63" stroke="rgba(255, 1, 79, 1)" stroke-width="1.5"></path><path d="M840.37 557.39L973.52 641.36" stroke="rgba(255, 1, 79, 1)" stroke-width="1.5"></path><path d="M952.14 -110.22L952.14 -110.22" stroke="rgba(255, 1, 79, 1)" stroke-width="1.5"></path><path d="M952.14 -110.22L1158.71 -71.95" stroke="rgba(255, 1, 79, 1)" stroke-width="1.5"></path><path d="M952.14 -110.22L1132.39 101.14" stroke="rgba(255, 1, 79, 1)" stroke-width="1.5"></path><path d="M970.69 213.36L970.69 213.36" stroke="rgba(255, 1, 79, 1)" stroke-width="1.5"></path><path d="M970.69 213.36L1095.11 259" stroke="rgba(255, 1, 79, 1)" stroke-width="1.5"></path><path d="M970.69 213.36L974.45 356.57" stroke="rgba(255, 1, 79, 1)" stroke-width="1.5"></path><path d="M974.45 356.57L974.45 356.57" stroke="rgba(255, 1, 79, 1)" stroke-width="1.5"></path><path d="M974.45 356.57L1095.11 259" stroke="rgba(255, 1, 79, 1)" stroke-width="1.5"></path><path d="M974.45 356.57L994.26 539.63" stroke="rgba(255, 1, 79, 1)" stroke-width="1.5"></path><path d="M974.45 356.57L789.15 347.55" stroke="rgba(255, 1, 79, 1)" stroke-width="1.5"></path><path d="M994.26 539.63L994.26 539.63" stroke="rgba(255, 1, 79, 1)" stroke-width="1.5"></path><path d="M994.26 539.63L973.52 641.36" stroke="rgba(255, 1, 79, 1)" stroke-width="1.5"></path><path d="M994.26 539.63L1127.3 529.78" stroke="rgba(255, 1, 79, 1)" stroke-width="1.5"></path><path d="M994.26 539.63L1104.39 684.4" stroke="rgba(255, 1, 79, 1)" stroke-width="1.5"></path><path d="M973.52 641.36L973.52 641.36" stroke="rgba(255, 1, 79, 1)" stroke-width="1.5"></path><path d="M973.52 641.36L1104.39 684.4" stroke="rgba(255, 1, 79, 1)" stroke-width="1.5"></path><path d="M973.52 641.36L1127.3 529.78" stroke="rgba(255, 1, 79, 1)" stroke-width="1.5"></path><path d="M1158.71 -71.95L1158.71 -71.95" stroke="rgba(255, 1, 79, 1)" stroke-width="1.5"></path><path d="M1158.71 -71.95L1265.16 -58.58" stroke="rgba(255, 1, 79, 1)" stroke-width="1.5"></path><path d="M1158.71 -71.95L1132.39 101.14" stroke="rgba(255, 1, 79, 1)" stroke-width="1.5"></path><path d="M1158.71 -71.95L1310.04 79.92" stroke="rgba(255, 1, 79, 1)" stroke-width="1.5"></path><path d="M1132.39 101.14L1132.39 101.14" stroke="rgba(255, 1, 79, 1)" stroke-width="1.5"></path><path d="M1132.39 101.14L1095.11 259" stroke="rgba(255, 1, 79, 1)" stroke-width="1.5"></path><path d="M1132.39 101.14L1310.04 79.92" stroke="rgba(255, 1, 79, 1)" stroke-width="1.5"></path><path d="M1132.39 101.14L1259.06 246.18" stroke="rgba(255, 1, 79, 1)" stroke-width="1.5"></path><path d="M1132.39 101.14L970.69 213.36" stroke="rgba(255, 1, 79, 1)" stroke-width="1.5"></path><path d="M1095.11 259L1095.11 259" stroke="rgba(255, 1, 79, 1)" stroke-width="1.5"></path><path d="M1127.3 529.78L1127.3 529.78" stroke="rgba(255, 1, 79, 1)" stroke-width="1.5"></path><path d="M1127.3 529.78L1250.09 552.47" stroke="rgba(255, 1, 79, 1)" stroke-width="1.5"></path><path d="M1127.3 529.78L1104.39 684.4" stroke="rgba(255, 1, 79, 1)" stroke-width="1.5"></path><path d="M1127.3 529.78L1252.37 361.49" stroke="rgba(255, 1, 79, 1)" stroke-width="1.5"></path><path d="M1127.3 529.78L1297.74 682.99" stroke="rgba(255, 1, 79, 1)" stroke-width="1.5"></path><path d="M1104.39 684.4L1104.39 684.4" stroke="rgba(255, 1, 79, 1)" stroke-width="1.5"></path><path d="M1104.39 684.4L1297.74 682.99" stroke="rgba(255, 1, 79, 1)" stroke-width="1.5"></path><path d="M1265.16 -58.58L1265.16 -58.58" stroke="rgba(255, 1, 79, 1)" stroke-width="1.5"></path><path d="M1265.16 -58.58L1310.04 79.92" stroke="rgba(255, 1, 79, 1)" stroke-width="1.5"></path><path d="M1265.16 -58.58L1132.39 101.14" stroke="rgba(255, 1, 79, 1)" stroke-width="1.5"></path><path d="M1265.16 -58.58L1433.15 68.75" stroke="rgba(255, 1, 79, 1)" stroke-width="1.5"></path><path d="M1265.16 -58.58L1542.39 61.36" stroke="rgba(255, 1, 79, 1)" stroke-width="1.5"></path><path d="M1310.04 79.92L1310.04 79.92" stroke="rgba(255, 1, 79, 1)" stroke-width="1.5"></path><path d="M1310.04 79.92L1433.15 68.75" stroke="rgba(255, 1, 79, 1)" stroke-width="1.5"></path><path d="M1259.06 246.18L1259.06 246.18" stroke="rgba(255, 1, 79, 1)" stroke-width="1.5"></path><path d="M1259.06 246.18L1252.37 361.49" stroke="rgba(255, 1, 79, 1)" stroke-width="1.5"></path><path d="M1259.06 246.18L1095.11 259" stroke="rgba(255, 1, 79, 1)" stroke-width="1.5"></path><path d="M1259.06 246.18L1310.04 79.92" stroke="rgba(255, 1, 79, 1)" stroke-width="1.5"></path><path d="M1252.37 361.49L1252.37 361.49" stroke="rgba(255, 1, 79, 1)" stroke-width="1.5"></path><path d="M1252.37 361.49L1095.11 259" stroke="rgba(255, 1, 79, 1)" stroke-width="1.5"></path><path d="M1252.37 361.49L1250.09 552.47" stroke="rgba(255, 1, 79, 1)" stroke-width="1.5"></path><path d="M1252.37 361.49L1456.82 376.32" stroke="rgba(255, 1, 79, 1)" stroke-width="1.5"></path><path d="M1250.09 552.47L1250.09 552.47" stroke="rgba(255, 1, 79, 1)" stroke-width="1.5"></path><path d="M1250.09 552.47L1297.74 682.99" stroke="rgba(255, 1, 79, 1)" stroke-width="1.5"></path><path d="M1250.09 552.47L1388.8 647.51" stroke="rgba(255, 1, 79, 1)" stroke-width="1.5"></path><path d="M1250.09 552.47L1417.36 518.17" stroke="rgba(255, 1, 79, 1)" stroke-width="1.5"></path><path d="M1297.74 682.99L1297.74 682.99" stroke="rgba(255, 1, 79, 1)" stroke-width="1.5"></path><path d="M1297.74 682.99L1388.8 647.51" stroke="rgba(255, 1, 79, 1)" stroke-width="1.5"></path><path d="M1433.15 68.75L1433.15 68.75" stroke="rgba(255, 1, 79, 1)" stroke-width="1.5"></path><path d="M1433.15 68.75L1542.39 61.36" stroke="rgba(255, 1, 79, 1)" stroke-width="1.5"></path><path d="M1433.15 68.75L1441.37 221.93" stroke="rgba(255, 1, 79, 1)" stroke-width="1.5"></path><path d="M1441.37 221.93L1441.37 221.93" stroke="rgba(255, 1, 79, 1)" stroke-width="1.5"></path><path d="M1441.37 221.93L1539.94 220.33" stroke="rgba(255, 1, 79, 1)" stroke-width="1.5"></path><path d="M1441.37 221.93L1456.82 376.32" stroke="rgba(255, 1, 79, 1)" stroke-width="1.5"></path><path d="M1441.37 221.93L1542.21 368.22" stroke="rgba(255, 1, 79, 1)" stroke-width="1.5"></path><path d="M1441.37 221.93L1259.06 246.18" stroke="rgba(255, 1, 79, 1)" stroke-width="1.5"></path><path d="M1441.37 221.93L1542.39 61.36" stroke="rgba(255, 1, 79, 1)" stroke-width="1.5"></path><path d="M1456.82 376.32L1456.82 376.32" stroke="rgba(255, 1, 79, 1)" stroke-width="1.5"></path><path d="M1456.82 376.32L1542.21 368.22" stroke="rgba(255, 1, 79, 1)" stroke-width="1.5"></path><path d="M1456.82 376.32L1417.36 518.17" stroke="rgba(255, 1, 79, 1)" stroke-width="1.5"></path><path d="M1456.82 376.32L1539.94 220.33" stroke="rgba(255, 1, 79, 1)" stroke-width="1.5"></path><path d="M1456.82 376.32L1585.57 504.75" stroke="rgba(255, 1, 79, 1)" stroke-width="1.5"></path><path d="M1417.36 518.17L1417.36 518.17" stroke="rgba(255, 1, 79, 1)" stroke-width="1.5"></path><path d="M1417.36 518.17L1388.8 647.51" stroke="rgba(255, 1, 79, 1)" stroke-width="1.5"></path><path d="M1417.36 518.17L1585.57 504.75" stroke="rgba(255, 1, 79, 1)" stroke-width="1.5"></path><path d="M1417.36 518.17L1542.21 368.22" stroke="rgba(255, 1, 79, 1)" stroke-width="1.5"></path><path d="M1388.8 647.51L1388.8 647.51" stroke="rgba(255, 1, 79, 1)" stroke-width="1.5"></path><path d="M1570.2 -83.41L1570.2 -83.41" stroke="rgba(255, 1, 79, 1)" stroke-width="1.5"></path><path d="M1570.2 -83.41L1542.39 61.36" stroke="rgba(255, 1, 79, 1)" stroke-width="1.5"></path><path d="M1570.2 -83.41L1433.15 68.75" stroke="rgba(255, 1, 79, 1)" stroke-width="1.5"></path><path d="M1570.2 -83.41L1539.94 220.33" stroke="rgba(255, 1, 79, 1)" stroke-width="1.5"></path><path d="M1570.2 -83.41L1265.16 -58.58" stroke="rgba(255, 1, 79, 1)" stroke-width="1.5"></path><path d="M1570.2 -83.41L1310.04 79.92" stroke="rgba(255, 1, 79, 1)" stroke-width="1.5"></path><path d="M1570.2 -83.41L1441.37 221.93" stroke="rgba(255, 1, 79, 1)" stroke-width="1.5"></path><path d="M1542.39 61.36L1542.39 61.36" stroke="rgba(255, 1, 79, 1)" stroke-width="1.5"></path><path d="M1539.94 220.33L1539.94 220.33" stroke="rgba(255, 1, 79, 1)" stroke-width="1.5"></path><path d="M1539.94 220.33L1542.21 368.22" stroke="rgba(255, 1, 79, 1)" stroke-width="1.5"></path><path d="M1539.94 220.33L1542.39 61.36" stroke="rgba(255, 1, 79, 1)" stroke-width="1.5"></path><path d="M1542.21 368.22L1542.21 368.22" stroke="rgba(255, 1, 79, 1)" stroke-width="1.5"></path><path d="M1542.21 368.22L1585.57 504.75" stroke="rgba(255, 1, 79, 1)" stroke-width="1.5"></path><path d="M1585.57 504.75L1585.57 504.75" stroke="rgba(255, 1, 79, 1)" stroke-width="1.5"></path><path d="M1585.57 504.75L1610.31 668.07" stroke="rgba(255, 1, 79, 1)" stroke-width="1.5"></path><path d="M1585.57 504.75L1388.8 647.51" stroke="rgba(255, 1, 79, 1)" stroke-width="1.5"></path><path d="M1610.31 668.07L1610.31 668.07" stroke="rgba(255, 1, 79, 1)" stroke-width="1.5"></path><circle r="5" cx="-56.39" cy="387.32" fill="rgba(255, 1, 79, 1)"></circle><circle r="5" cx="-99.08" cy="526.64" fill="rgba(255, 1, 79, 1)"></circle><circle r="5" cx="-65.2" cy="651.19" fill="rgba(255, 1, 79, 1)"></circle><circle r="5" cx="78.07" cy="339.92" fill="rgba(255, 1, 79, 1)"></circle><circle r="5" cx="103.85" cy="506.9" fill="rgba(255, 1, 79, 1)"></circle><circle r="5" cx="201.07" cy="411.33" fill="rgba(255, 1, 79, 1)"></circle><circle r="5" cx="241.23" cy="520.15" fill="rgba(255, 1, 79, 1)"></circle><circle r="5" cx="199.53" cy="697.91" fill="rgba(255, 1, 79, 1)"></circle><circle r="5" cx="374.03" cy="351.39" fill="rgba(255, 1, 79, 1)"></circle><circle r="5" cx="397.46" cy="495.93" fill="rgba(255, 1, 79, 1)"></circle><circle r="5" cx="538.73" cy="378.79" fill="rgba(255, 1, 79, 1)"></circle><circle r="5" cx="544.36" cy="496.83" fill="rgba(255, 1, 79, 1)"></circle><circle r="5" cx="511.04" cy="694.24" fill="rgba(255, 1, 79, 1)"></circle><circle r="5" cx="653.48" cy="252.55" fill="rgba(255, 1, 79, 1)"></circle><circle r="5" cx="693.44" cy="379.22" fill="rgba(255, 1, 79, 1)"></circle><circle r="5" cx="710.21" cy="526.14" fill="rgba(255, 1, 79, 1)"></circle><circle r="5" cx="711.44" cy="660.65" fill="rgba(255, 1, 79, 1)"></circle><circle r="5" cx="801.02" cy="193.44" fill="rgba(255, 1, 79, 1)"></circle><circle r="5" cx="789.15" cy="347.55" fill="rgba(255, 1, 79, 1)"></circle><circle r="5" cx="840.37" cy="557.39" fill="rgba(255, 1, 79, 1)"></circle><circle r="5" cx="952.14" cy="-110.22" fill="rgba(255, 1, 79, 1)"></circle><circle r="5" cx="970.69" cy="213.36" fill="rgba(255, 1, 79, 1)"></circle><circle r="5" cx="974.45" cy="356.57" fill="rgba(255, 1, 79, 1)"></circle><circle r="5" cx="994.26" cy="539.63" fill="rgba(255, 1, 79, 1)"></circle><circle r="5" cx="973.52" cy="641.36" fill="rgba(255, 1, 79, 1)"></circle><circle r="5" cx="1158.71" cy="-71.95" fill="rgba(255, 1, 79, 1)"></circle><circle r="5" cx="1132.39" cy="101.14" fill="rgba(255, 1, 79, 1)"></circle><circle r="5" cx="1095.11" cy="259" fill="rgba(255, 1, 79, 1)"></circle><circle r="5" cx="1127.3" cy="529.78" fill="rgba(255, 1, 79, 1)"></circle><circle r="5" cx="1104.39" cy="684.4" fill="rgba(255, 1, 79, 1)"></circle><circle r="5" cx="1265.16" cy="-58.58" fill="rgba(255, 1, 79, 1)"></circle><circle r="5" cx="1310.04" cy="79.92" fill="rgba(255, 1, 79, 1)"></circle><circle r="5" cx="1259.06" cy="246.18" fill="rgba(255, 1, 79, 1)"></circle><circle r="5" cx="1252.37" cy="361.49" fill="rgba(255, 1, 79, 1)"></circle><circle r="5" cx="1250.09" cy="552.47" fill="rgba(255, 1, 79, 1)"></circle><circle r="5" cx="1297.74" cy="682.99" fill="rgba(255, 1, 79, 1)"></circle><circle r="5" cx="1433.15" cy="68.75" fill="rgba(255, 1, 79, 1)"></circle><circle r="5" cx="1441.37" cy="221.93" fill="rgba(255, 1, 79, 1)"></circle><circle r="5" cx="1456.82" cy="376.32" fill="rgba(255, 1, 79, 1)"></circle><circle r="5" cx="1417.36" cy="518.17" fill="rgba(255, 1, 79, 1)"></circle><circle r="5" cx="1388.8" cy="647.51" fill="rgba(255, 1, 79, 1)"></circle><circle r="5" cx="1570.2" cy="-83.41" fill="rgba(255, 1, 79, 1)"></circle><circle r="5" cx="1542.39" cy="61.36" fill="rgba(255, 1, 79, 1)"></circle><circle r="5" cx="1539.94" cy="220.33" fill="rgba(255, 1, 79, 1)"></circle><circle r="5" cx="1542.21" cy="368.22" fill="rgba(255, 1, 79, 1)"></circle><circle r="5" cx="1585.57" cy="504.75" fill="rgba(255, 1, 79, 1)"></circle><circle r="5" cx="1610.31" cy="668.07" fill="rgba(255, 1, 79, 1)"></circle><path d="M78.37 500.8L78.37 500.8" stroke="hsl(341.6, 100%, 65.3%)" stroke-width="1.5"></path><path d="M78.37 500.8L198.2 495.36" stroke="hsl(341.6, 100%, 65.3%)" stroke-width="1.5"></path><path d="M78.37 500.8L-93.56 554.16" stroke="hsl(341.6, 100%, 65.3%)" stroke-width="1.5"></path><path d="M78.37 500.8L83.69 681.07" stroke="hsl(341.6, 100%, 65.3%)" stroke-width="1.5"></path><path d="M78.37 500.8L-79.14 669.5" stroke="hsl(341.6, 100%, 65.3%)" stroke-width="1.5"></path><path d="M78.37 500.8L230.91 702.12" stroke="hsl(341.6, 100%, 65.3%)" stroke-width="1.5"></path><path d="M384.31 681.01L384.31 681.01" stroke="hsl(341.6, 100%, 65.3%)" stroke-width="1.5"></path><path d="M384.31 681.01L519.93 639.78" stroke="hsl(341.6, 100%, 65.3%)" stroke-width="1.5"></path><path d="M384.31 681.01L230.91 702.12" stroke="hsl(341.6, 100%, 65.3%)" stroke-width="1.5"></path><path d="M384.31 681.01L351.23 496.14" stroke="hsl(341.6, 100%, 65.3%)" stroke-width="1.5"></path><path d="M384.31 681.01L558.23 548.92" stroke="hsl(341.6, 100%, 65.3%)" stroke-width="1.5"></path><path d="M558.23 548.92L558.23 548.92" stroke="hsl(341.6, 100%, 65.3%)" stroke-width="1.5"></path><path d="M558.23 548.92L519.93 639.78" stroke="hsl(341.6, 100%, 65.3%)" stroke-width="1.5"></path><path d="M558.23 548.92L694.55 645.01" stroke="hsl(341.6, 100%, 65.3%)" stroke-width="1.5"></path><path d="M558.23 548.92L351.23 496.14" stroke="hsl(341.6, 100%, 65.3%)" stroke-width="1.5"></path><path d="M558.23 548.92L790.09 559.16" stroke="hsl(341.6, 100%, 65.3%)" stroke-width="1.5"></path><path d="M978.2 489.46L978.2 489.46" stroke="hsl(341.6, 100%, 65.3%)" stroke-width="1.5"></path><path d="M978.2 489.46L1096.96 377.18" stroke="hsl(341.6, 100%, 65.3%)" stroke-width="1.5"></path><path d="M978.2 489.46L1006.51 667.71" stroke="hsl(341.6, 100%, 65.3%)" stroke-width="1.5"></path><path d="M978.2 489.46L1147.43 552.47" stroke="hsl(341.6, 100%, 65.3%)" stroke-width="1.5"></path><path d="M978.2 489.46L816.96 380.4" stroke="hsl(341.6, 100%, 65.3%)" stroke-width="1.5"></path><path d="M978.2 489.46L790.09 559.16" stroke="hsl(341.6, 100%, 65.3%)" stroke-width="1.5"></path><path d="M978.2 489.46L830.83 656.32" stroke="hsl(341.6, 100%, 65.3%)" stroke-width="1.5"></path><path d="M1124.06 205.92L1124.06 205.92" stroke="hsl(341.6, 100%, 65.3%)" stroke-width="1.5"></path><path d="M1124.06 205.92L1277.15 230.68" stroke="hsl(341.6, 100%, 65.3%)" stroke-width="1.5"></path><path d="M1124.06 205.92L1096.96 377.18" stroke="hsl(341.6, 100%, 65.3%)" stroke-width="1.5"></path><path d="M1390.84 -109.5L1390.84 -109.5" stroke="hsl(341.6, 100%, 65.3%)" stroke-width="1.5"></path><path d="M1390.84 -109.5L1551.37 -84.26" stroke="hsl(341.6, 100%, 65.3%)" stroke-width="1.5"></path><path d="M-93.56 554.16L-93.56 554.16" stroke="hsl(341.6, 100%, 65.3%)" stroke-width="1.5"></path><path d="M-93.56 554.16L-79.14 669.5" stroke="hsl(341.6, 100%, 65.3%)" stroke-width="1.5"></path><path d="M-93.56 554.16L83.69 681.07" stroke="hsl(341.6, 100%, 65.3%)" stroke-width="1.5"></path><path d="M-93.56 554.16L198.2 495.36" stroke="hsl(341.6, 100%, 65.3%)" stroke-width="1.5"></path><path d="M-79.14 669.5L-79.14 669.5" stroke="hsl(341.6, 100%, 65.3%)" stroke-width="1.5"></path><path d="M-79.14 669.5L83.69 681.07" stroke="hsl(341.6, 100%, 65.3%)" stroke-width="1.5"></path><path d="M-79.14 669.5L230.91 702.12" stroke="hsl(341.6, 100%, 65.3%)" stroke-width="1.5"></path><path d="M-79.14 669.5L198.2 495.36" stroke="hsl(341.6, 100%, 65.3%)" stroke-width="1.5"></path><path d="M-79.14 669.5L384.31 681.01" stroke="hsl(341.6, 100%, 65.3%)" stroke-width="1.5"></path><path d="M83.69 681.07L83.69 681.07" stroke="hsl(341.6, 100%, 65.3%)" stroke-width="1.5"></path><path d="M83.69 681.07L230.91 702.12" stroke="hsl(341.6, 100%, 65.3%)" stroke-width="1.5"></path><path d="M198.2 495.36L198.2 495.36" stroke="hsl(341.6, 100%, 65.3%)" stroke-width="1.5"></path><path d="M198.2 495.36L351.23 496.14" stroke="hsl(341.6, 100%, 65.3%)" stroke-width="1.5"></path><path d="M198.2 495.36L230.91 702.12" stroke="hsl(341.6, 100%, 65.3%)" stroke-width="1.5"></path><path d="M198.2 495.36L83.69 681.07" stroke="hsl(341.6, 100%, 65.3%)" stroke-width="1.5"></path><path d="M230.91 702.12L230.91 702.12" stroke="hsl(341.6, 100%, 65.3%)" stroke-width="1.5"></path><path d="M351.23 496.14L351.23 496.14" stroke="hsl(341.6, 100%, 65.3%)" stroke-width="1.5"></path><path d="M519.93 639.78L519.93 639.78" stroke="hsl(341.6, 100%, 65.3%)" stroke-width="1.5"></path><path d="M694.55 645.01L694.55 645.01" stroke="hsl(341.6, 100%, 65.3%)" stroke-width="1.5"></path><path d="M694.55 645.01L790.09 559.16" stroke="hsl(341.6, 100%, 65.3%)" stroke-width="1.5"></path><path d="M694.55 645.01L830.83 656.32" stroke="hsl(341.6, 100%, 65.3%)" stroke-width="1.5"></path><path d="M694.55 645.01L519.93 639.78" stroke="hsl(341.6, 100%, 65.3%)" stroke-width="1.5"></path><path d="M694.55 645.01L816.96 380.4" stroke="hsl(341.6, 100%, 65.3%)" stroke-width="1.5"></path><path d="M816.96 380.4L816.96 380.4" stroke="hsl(341.6, 100%, 65.3%)" stroke-width="1.5"></path><path d="M816.96 380.4L790.09 559.16" stroke="hsl(341.6, 100%, 65.3%)" stroke-width="1.5"></path><path d="M790.09 559.16L790.09 559.16" stroke="hsl(341.6, 100%, 65.3%)" stroke-width="1.5"></path><path d="M790.09 559.16L830.83 656.32" stroke="hsl(341.6, 100%, 65.3%)" stroke-width="1.5"></path><path d="M830.83 656.32L830.83 656.32" stroke="hsl(341.6, 100%, 65.3%)" stroke-width="1.5"></path><path d="M830.83 656.32L1006.51 667.71" stroke="hsl(341.6, 100%, 65.3%)" stroke-width="1.5"></path><path d="M1006.51 667.71L1006.51 667.71" stroke="hsl(341.6, 100%, 65.3%)" stroke-width="1.5"></path><path d="M1006.51 667.71L1118.49 702.06" stroke="hsl(341.6, 100%, 65.3%)" stroke-width="1.5"></path><path d="M1006.51 667.71L1147.43 552.47" stroke="hsl(341.6, 100%, 65.3%)" stroke-width="1.5"></path><path d="M1096.96 377.18L1096.96 377.18" stroke="hsl(341.6, 100%, 65.3%)" stroke-width="1.5"></path><path d="M1096.96 377.18L1147.43 552.47" stroke="hsl(341.6, 100%, 65.3%)" stroke-width="1.5"></path><path d="M1147.43 552.47L1147.43 552.47" stroke="hsl(341.6, 100%, 65.3%)" stroke-width="1.5"></path><path d="M1147.43 552.47L1247.75 535.71" stroke="hsl(341.6, 100%, 65.3%)" stroke-width="1.5"></path><path d="M1147.43 552.47L1118.49 702.06" stroke="hsl(341.6, 100%, 65.3%)" stroke-width="1.5"></path><path d="M1147.43 552.47L1296.76 683.89" stroke="hsl(341.6, 100%, 65.3%)" stroke-width="1.5"></path><path d="M1118.49 702.06L1118.49 702.06" stroke="hsl(341.6, 100%, 65.3%)" stroke-width="1.5"></path><path d="M1118.49 702.06L1296.76 683.89" stroke="hsl(341.6, 100%, 65.3%)" stroke-width="1.5"></path><path d="M1118.49 702.06L1247.75 535.71" stroke="hsl(341.6, 100%, 65.3%)" stroke-width="1.5"></path><path d="M1118.49 702.06L978.2 489.46" stroke="hsl(341.6, 100%, 65.3%)" stroke-width="1.5"></path><path d="M1118.49 702.06L1399.72 711.12" stroke="hsl(341.6, 100%, 65.3%)" stroke-width="1.5"></path><path d="M1272.38 96.07L1272.38 96.07" stroke="hsl(341.6, 100%, 65.3%)" stroke-width="1.5"></path><path d="M1272.38 96.07L1393.6 69.97" stroke="hsl(341.6, 100%, 65.3%)" stroke-width="1.5"></path><path d="M1272.38 96.07L1277.15 230.68" stroke="hsl(341.6, 100%, 65.3%)" stroke-width="1.5"></path><path d="M1277.15 230.68L1277.15 230.68" stroke="hsl(341.6, 100%, 65.3%)" stroke-width="1.5"></path><path d="M1247.75 535.71L1247.75 535.71" stroke="hsl(341.6, 100%, 65.3%)" stroke-width="1.5"></path><path d="M1247.75 535.71L1296.76 683.89" stroke="hsl(341.6, 100%, 65.3%)" stroke-width="1.5"></path><path d="M1247.75 535.71L1413.2 517.21" stroke="hsl(341.6, 100%, 65.3%)" stroke-width="1.5"></path><path d="M1247.75 535.71L1096.96 377.18" stroke="hsl(341.6, 100%, 65.3%)" stroke-width="1.5"></path><path d="M1296.76 683.89L1296.76 683.89" stroke="hsl(341.6, 100%, 65.3%)" stroke-width="1.5"></path><path d="M1296.76 683.89L1399.72 711.12" stroke="hsl(341.6, 100%, 65.3%)" stroke-width="1.5"></path><path d="M1296.76 683.89L1413.2 517.21" stroke="hsl(341.6, 100%, 65.3%)" stroke-width="1.5"></path><path d="M1393.6 69.97L1393.6 69.97" stroke="hsl(341.6, 100%, 65.3%)" stroke-width="1.5"></path><path d="M1393.6 69.97L1539.75 98.35" stroke="hsl(341.6, 100%, 65.3%)" stroke-width="1.5"></path><path d="M1393.6 69.97L1390.84 -109.5" stroke="hsl(341.6, 100%, 65.3%)" stroke-width="1.5"></path><path d="M1393.6 69.97L1277.15 230.68" stroke="hsl(341.6, 100%, 65.3%)" stroke-width="1.5"></path><path d="M1393.6 69.97L1551.37 -84.26" stroke="hsl(341.6, 100%, 65.3%)" stroke-width="1.5"></path><path d="M1421.58 379.76L1421.58 379.76" stroke="hsl(341.6, 100%, 65.3%)" stroke-width="1.5"></path><path d="M1421.58 379.76L1413.2 517.21" stroke="hsl(341.6, 100%, 65.3%)" stroke-width="1.5"></path><path d="M1421.58 379.76L1563.55 405.2" stroke="hsl(341.6, 100%, 65.3%)" stroke-width="1.5"></path><path d="M1421.58 379.76L1540.96 248.82" stroke="hsl(341.6, 100%, 65.3%)" stroke-width="1.5"></path><path d="M1421.58 379.76L1277.15 230.68" stroke="hsl(341.6, 100%, 65.3%)" stroke-width="1.5"></path><path d="M1413.2 517.21L1413.2 517.21" stroke="hsl(341.6, 100%, 65.3%)" stroke-width="1.5"></path><path d="M1413.2 517.21L1584.59 547.01" stroke="hsl(341.6, 100%, 65.3%)" stroke-width="1.5"></path><path d="M1399.72 711.12L1399.72 711.12" stroke="hsl(341.6, 100%, 65.3%)" stroke-width="1.5"></path><path d="M1399.72 711.12L1413.2 517.21" stroke="hsl(341.6, 100%, 65.3%)" stroke-width="1.5"></path><path d="M1399.72 711.12L1598.63 655.79" stroke="hsl(341.6, 100%, 65.3%)" stroke-width="1.5"></path><path d="M1399.72 711.12L1247.75 535.71" stroke="hsl(341.6, 100%, 65.3%)" stroke-width="1.5"></path><path d="M1399.72 711.12L1584.59 547.01" stroke="hsl(341.6, 100%, 65.3%)" stroke-width="1.5"></path><path d="M1551.37 -84.26L1551.37 -84.26" stroke="hsl(341.6, 100%, 65.3%)" stroke-width="1.5"></path><path d="M1551.37 -84.26L1539.75 98.35" stroke="hsl(341.6, 100%, 65.3%)" stroke-width="1.5"></path><path d="M1539.75 98.35L1539.75 98.35" stroke="hsl(341.6, 100%, 65.3%)" stroke-width="1.5"></path><path d="M1539.75 98.35L1540.96 248.82" stroke="hsl(341.6, 100%, 65.3%)" stroke-width="1.5"></path><path d="M1539.75 98.35L1390.84 -109.5" stroke="hsl(341.6, 100%, 65.3%)" stroke-width="1.5"></path><path d="M1539.75 98.35L1272.38 96.07" stroke="hsl(341.6, 100%, 65.3%)" stroke-width="1.5"></path><path d="M1540.96 248.82L1540.96 248.82" stroke="hsl(341.6, 100%, 65.3%)" stroke-width="1.5"></path><path d="M1540.96 248.82L1563.55 405.2" stroke="hsl(341.6, 100%, 65.3%)" stroke-width="1.5"></path><path d="M1540.96 248.82L1393.6 69.97" stroke="hsl(341.6, 100%, 65.3%)" stroke-width="1.5"></path><path d="M1563.55 405.2L1563.55 405.2" stroke="hsl(341.6, 100%, 65.3%)" stroke-width="1.5"></path><path d="M1563.55 405.2L1584.59 547.01" stroke="hsl(341.6, 100%, 65.3%)" stroke-width="1.5"></path><path d="M1584.59 547.01L1584.59 547.01" stroke="hsl(341.6, 100%, 65.3%)" stroke-width="1.5"></path><path d="M1584.59 547.01L1598.63 655.79" stroke="hsl(341.6, 100%, 65.3%)" stroke-width="1.5"></path><path d="M1584.59 547.01L1421.58 379.76" stroke="hsl(341.6, 100%, 65.3%)" stroke-width="1.5"></path><path d="M1598.63 655.79L1598.63 655.79" stroke="hsl(341.6, 100%, 65.3%)" stroke-width="1.5"></path><path d="M1598.63 655.79L1413.2 517.21" stroke="hsl(341.6, 100%, 65.3%)" stroke-width="1.5"></path><path d="M1598.63 655.79L1563.55 405.2" stroke="hsl(341.6, 100%, 65.3%)" stroke-width="1.5"></path><circle r="25" cx="78.37" cy="500.8" fill="url(&quot;#SvgjsRadialGradient1067&quot;)"></circle><circle r="25" cx="384.31" cy="681.01" fill="url(&quot;#SvgjsRadialGradient1067&quot;)"></circle><circle r="25" cx="558.23" cy="548.92" fill="url(&quot;#SvgjsRadialGradient1067&quot;)"></circle><circle r="25" cx="978.2" cy="489.46" fill="url(&quot;#SvgjsRadialGradient1067&quot;)"></circle><circle r="25" cx="1124.06" cy="205.92" fill="url(&quot;#SvgjsRadialGradient1067&quot;)"></circle><circle r="25" cx="1390.84" cy="-109.5" fill="url(&quot;#SvgjsRadialGradient1067&quot;)"></circle><circle r="5" cx="-93.56" cy="554.16" fill="#ff80a7"></circle><circle r="5" cx="-79.14" cy="669.5" fill="#ff80a7"></circle><circle r="5" cx="83.69" cy="681.07" fill="#ff80a7"></circle><circle r="5" cx="198.2" cy="495.36" fill="#ff80a7"></circle><circle r="5" cx="230.91" cy="702.12" fill="#ff80a7"></circle><circle r="5" cx="351.23" cy="496.14" fill="#ff80a7"></circle><circle r="5" cx="519.93" cy="639.78" fill="#ff80a7"></circle><circle r="5" cx="694.55" cy="645.01" fill="#ff80a7"></circle><circle r="5" cx="816.96" cy="380.4" fill="#ff80a7"></circle><circle r="5" cx="790.09" cy="559.16" fill="#ff80a7"></circle><circle r="5" cx="830.83" cy="656.32" fill="#ff80a7"></circle><circle r="5" cx="1006.51" cy="667.71" fill="#ff80a7"></circle><circle r="5" cx="1096.96" cy="377.18" fill="#ff80a7"></circle><circle r="5" cx="1147.43" cy="552.47" fill="#ff80a7"></circle><circle r="5" cx="1118.49" cy="702.06" fill="#ff80a7"></circle><circle r="5" cx="1272.38" cy="96.07" fill="#ff80a7"></circle><circle r="5" cx="1277.15" cy="230.68" fill="#ff80a7"></circle><circle r="5" cx="1247.75" cy="535.71" fill="#ff80a7"></circle><circle r="5" cx="1296.76" cy="683.89" fill="#ff80a7"></circle><circle r="5" cx="1393.6" cy="69.97" fill="#ff80a7"></circle><circle r="5" cx="1421.58" cy="379.76" fill="#ff80a7"></circle><circle r="5" cx="1413.2" cy="517.21" fill="#ff80a7"></circle><circle r="5" cx="1399.72" cy="711.12" fill="#ff80a7"></circle><circle r="5" cx="1551.37" cy="-84.26" fill="#ff80a7"></circle><circle r="5" cx="1539.75" cy="98.35" fill="#ff80a7"></circle><circle r="5" cx="1540.96" cy="248.82" fill="#ff80a7"></circle><circle r="5" cx="1563.55" cy="405.2" fill="#ff80a7"></circle><circle r="5" cx="1584.59" cy="547.01" fill="#ff80a7"></circle><circle r="5" cx="1598.63" cy="655.79" fill="#ff80a7"></circle></g><defs><mask id="SvgjsMask1066"><rect width="1440" height="560" fill="#ffffff"></rect></mask><radialGradient id="SvgjsRadialGradient1067"><stop stop-color="#ffffff" offset="0.1"></stop><stop stop-color="rgba(255, 1, 79, 1)" offset="0.2"></stop><stop stop-color="rgba(255, 1, 79, 0)" offset="1"></stop></radialGradient></defs></svg>