<svg xmlns="http://www.w3.org/2000/svg" version="1.1" xmlns:xlink="http://www.w3.org/1999/xlink" xmlns:svgjs="http://svgjs.dev/svgjs" width="1440" height="560" preserveAspectRatio="none" viewBox="0 0 1440 560"><g mask="url(&quot;#SvgjsMask1021&quot;)" fill="none"><path d="M0 105C57.84 53.29 71.45 61.65 140 14.85C148.35 9.15 144.11 1.03 153.8 0C214.11 -6.4 216.9 0 280 0C338.18 0 341.9 -9.07 396.36 0C411.9 2.59 406.01 23.33 420 23.33C444.6 23.33 445.31 4.7 473.53 0C515.31 -6.96 516.76 0 560 0C630 0 630 0 700 0C770 0 770 0 840 0C910 0 910 0 980 0C1050 0 1050 0 1120 0C1190 0 1190 0 1260 0C1330 0 1330 0 1400 0C1446.66 0 1447.57 -5.34 1493.33 0C1517.57 2.83 1533.34 -3.66 1540 16.33C1556.67 66.34 1540 78.16 1540 140C1540 210 1540 210 1540 280C1540 350 1540 350 1540 420C1540 490 1575 525 1540 560C1505 595 1470 560 1400 560C1334.78 560 1302.35 593.75 1269.55 560C1234.32 523.75 1235.07 475.84 1263.94 420C1300.29 349.68 1331.48 363.22 1400 307.67C1417.82 293.22 1436.62 294.05 1436.62 280C1436.62 265.7 1417.01 266.96 1400 250.98C1342.52 196.96 1337.52 199.99 1287.65 140C1267.52 115.78 1286.19 90.13 1260 82.56C1202.37 65.9 1185.2 73.54 1120 91.54C1081.15 102.26 1079.49 109.47 1051.89 140C1009.49 186.9 1016.64 193.7 980 246.4C967.97 263.7 954.55 261.45 954.55 280C954.55 310.56 953.2 340.21 980 344.62C1035.92 353.82 1057.87 290.21 1120 307.22C1195.53 327.9 1220.71 349.67 1255.33 420C1282.93 476.06 1280.31 522.89 1244.44 560C1212.65 592.89 1182.22 560 1120 560C1079.03 560 1067.19 580.64 1038.05 560C997.19 531.06 1012.58 507.73 980 460.83C963.95 437.73 963.85 435.94 940.8 420C893.85 387.53 886.8 397.14 840 364C787.94 327.14 792.57 320.69 743.08 280C722.57 263.14 721.45 248.89 700 248.89C678.91 248.89 675.97 261.21 658 280C605.97 334.41 606.89 336.21 560 395.29C551.33 406.21 546.88 407.35 546.88 420C546.88 435.26 545.16 449.12 560 451.11C621.72 459.39 630.99 434.4 700 440.53C770.99 446.84 778.34 443.39 840 476C891.3 503.13 925.91 535.51 925.91 560C925.91 577.51 882.95 560 840 560C770 560 770 560 700 560C630 560 630 560 560 560C490 560 490 560 420 560C350 560 350 560 280 560C225.13 560 221.45 569.75 170.27 560C151.45 556.42 154.34 533.33 140 533.33C127.29 533.33 132.65 556.86 116.17 560C62.65 570.2 26.34 591.74 0 560C-31.74 521.74 0 490 0 420C0 350 0 350 0 280C0 210 0 210 0 140C0 122.5 -12.16 115.87 0 105" stroke="rgba(255, 1, 79, 1)" stroke-width="2"></path><path d="M560 77.37C543.32 77.37 530.98 109.18 530.98 140C530.98 166.94 543.51 192.89 560 192.89C578.19 192.89 600.34 167.25 600.34 140C600.34 109.49 578 77.37 560 77.37" stroke="rgba(255, 1, 79, 1)" stroke-width="2"></path><path d="M50.19 140C82.26 94.47 97.63 106.67 140 67.88C174.09 36.67 164.84 18.55 203.1 0C234.84 -15.39 241.55 0 280 0C315.46 0 321.36 -14.4 350.91 0C391.36 19.71 386 33.57 420 68.21C454.69 103.57 460.34 99.58 488.29 140C530.34 200.81 522.44 206.7 560 270.67C563.54 276.7 570.5 274.97 570.5 280C570.5 285.81 563.95 285.29 560 292.35C524.79 355.29 495.63 354.32 492.19 420C488.63 488.15 565.62 521.96 546 560C529.52 591.96 483 560 420 560C350 560 350 560 280 560C272.43 560 264.86 564.51 264.86 560C264.86 550.51 273.66 546.58 280 532C304.09 476.58 306.29 477.19 325.71 420C349.07 351.19 379.69 331.78 365.56 280C356.84 248.03 322.67 252.5 280 252.5C239.36 252.5 215.93 248.26 198.95 280C171.13 332.01 211.18 360.06 190.4 420C181.71 445.06 161.15 430.09 140 450C86.8 500.09 96.27 517.12 41.7 560C26.27 572.12 4.79 576.06 0 560C-16.06 506.06 0 490 0 420C0 350 0 350 0 280C0 273.34 -2.24 272.91 0 266.67C22.86 202.91 12.26 193.86 50.19 140" stroke="rgba(255, 1, 79, 1)" stroke-width="2"></path><path d="M659.66 140C659.66 101.85 664.37 74.52 700 57.93C754.54 32.52 778.49 34.37 840 56C895.16 75.4 931.49 91.38 933.33 140C935.73 203.38 892.33 211.3 848.48 280C845.66 284.41 844.11 286.22 840 286.22C836.28 286.22 836.66 282.8 832.82 280C766.66 231.72 763.44 235.37 700 184.07C676.86 165.37 659.66 164.92 659.66 140" stroke="rgba(255, 1, 79, 1)" stroke-width="2"></path><path d="M1120 24.23C1094.22 24.23 1071.54 6.4 1071.54 0C1071.54 -5.72 1095.77 0 1120 0C1177.28 0 1234.55 -5.99 1234.55 0C1234.55 6.12 1175.72 24.23 1120 24.23" stroke="rgba(255, 1, 79, 1)" stroke-width="2"></path><path d="M1330.86 140C1330.86 89.09 1350.95 45.52 1400 30.2C1455.52 12.86 1491.55 36.67 1540 74.67C1561.55 91.57 1540 107.34 1540 140C1540 210 1540 210 1540 280C1540 316.59 1550.76 319.89 1540 353.18C1528.14 389.89 1494.77 384.31 1494.77 420C1494.77 472.16 1522.11 473.5 1540 528.89C1544.72 543.5 1552.73 557.17 1540 560C1482.73 572.73 1470 560 1400 560C1374.55 560 1360.39 578.24 1349.09 560C1317.01 508.24 1298.93 479.5 1313.24 420C1324.38 373.68 1355.87 383.23 1400 348.37C1444.48 313.23 1490.46 314.71 1490.46 280C1490.46 244.67 1443.33 246.3 1400 208.29C1363.53 176.3 1330.86 178.13 1330.86 140" stroke="rgba(255, 1, 79, 1)" stroke-width="2"></path><path d="M1029.41 420C1029.41 379.52 1075.96 355.83 1120 355.83C1159.76 355.83 1197 380.9 1197 420C1197 480.92 1160.96 555.88 1120 555.88C1077.17 555.88 1029.41 479.55 1029.41 420" stroke="rgba(255, 1, 79, 1)" stroke-width="2"></path><path d="M573.02 560C573.02 540.51 635.17 488.71 700 487.2C768.66 485.6 770.79 519.36 840 553.78C843.97 555.76 846.36 558.19 846.36 560C846.36 561.3 843.18 560 840 560C770 560 770 560 700 560C636.51 560 573.02 576.91 573.02 560" stroke="rgba(255, 1, 79, 1)" stroke-width="2"></path><path d="M116.23 140C116.23 127.81 129.39 131.82 140 120.91C197.47 61.82 192.42 51.79 252.39 0C262.42 -8.66 266.19 0 280 0C292.73 0 295.89 -7.72 305.45 0C365.89 48.82 363.06 56.21 420 113.08C433.14 126.21 445.61 124.09 445.61 140C445.61 169.37 447.14 195.44 420 203.64C364.34 220.44 350.16 193.8 280 190C210.16 186.21 199.1 206.5 140 188.46C117.22 181.5 116.23 161.58 116.23 140" stroke="rgba(255, 1, 79, 1)" stroke-width="2"></path><path d="M1374.07 140C1374.07 120.91 1379.06 99.7 1400 98.82C1462.02 96.2 1473.24 113.36 1540 133C1543.24 133.95 1540 136.5 1540 140C1540 182 1564.95 219.44 1540 224C1494.95 232.24 1466.89 199.47 1400 165.61C1383.93 157.47 1374.07 154.3 1374.07 140" stroke="rgba(255, 1, 79, 1)" stroke-width="2"></path><path d="M397.14 420C403.28 396.63 409.67 376.92 420 376.92C429.85 376.92 432.74 397.37 437.5 420C451.99 488.91 465.38 504.97 458.5 560C456.63 574.97 439.25 560 420 560C395.94 560 374.77 577.69 371.88 560C363.34 507.69 379.22 488.17 397.14 420" stroke="rgba(255, 1, 79, 1)" stroke-width="2"></path><path d="M1098.04 420C1098.04 410.19 1109.32 404.44 1120 404.44C1129.64 404.44 1138.67 410.52 1138.67 420C1138.67 434.77 1129.93 452.94 1120 452.94C1109.62 452.94 1098.04 434.44 1098.04 420" stroke="rgba(255, 1, 79, 1)" stroke-width="2"></path><path d="M1362.54 420C1362.54 399.7 1380.94 389.07 1400 389.07C1420.13 389.07 1440.92 399.13 1440.92 420C1440.92 462.09 1419.72 515 1400 515C1380.53 515 1362.54 462.67 1362.54 420" stroke="rgba(255, 1, 79, 1)" stroke-width="2"></path><path d="M654.42 560C654.42 553 676.8 533.87 700 533.87C726.08 533.87 752.97 553.11 752.97 560C752.97 566.18 726.49 560 700 560C677.21 560 654.42 566.07 654.42 560" stroke="rgba(255, 1, 79, 1)" stroke-width="2"></path></g><defs><mask id="SvgjsMask1021"><rect width="1440" height="560" fill="#ffffff"></rect></mask></defs></svg>