<svg xmlns="http://www.w3.org/2000/svg" version="1.1" xmlns:xlink="http://www.w3.org/1999/xlink" xmlns:svgjs="http://svgjs.dev/svgjs" viewBox="0 0 800 800"><g transform="matrix(1,0,0,1,0,0)"><path d="M683.8075501786128 681.2243529337554C683.9266381280872 681.1556098575559 684.0733618719128 681.1556098575559 684.1924498213872 681.2243721787376L686.3075503383611 682.4455240303857C686.4266382878357 682.5142671065853 686.5000001597484 682.6413417236472 686.5000001597484 682.7788471210284V685.2211508243249C686.5000001597484 685.358656221706 686.4266382878357 685.4857308387681 686.3075503383611 685.5544931599497L684.1924498213872 686.7756450115979C684.0733618719128 686.8443880877974 683.9266381280872 686.8443880877974 683.8075501786128 686.7756257666158L681.6924496616389 685.5544739149675C681.5733617121643 685.4857308387681 681.4999998402516 685.358656221706 681.4999998402516 685.2211508243249V682.7788471210284C681.4999998402516 682.6413417236472 681.5733617121643 682.5142671065853 681.6924496616389 682.4455047854036L683.8075501786128 681.2243529337554Z " stroke-width="14.5" stroke="#ff014f" fill="none" opacity="0.31" transform="rotate(100, 400, 400)"></path><path d="M662.7107908204284 649.241278133132C663.3317494141165 648.8828320929489 664.0968089354928 648.8828320929489 664.7177675291807 649.2413784819676L675.7465059391166 655.6088131369905C676.3674645328044 655.9672591771737 676.7499942934926 656.6298625375682 676.7499942934926 657.34685496677V670.081724276816C676.7499942934926 670.7987167060178 676.3674645328044 671.4613200664123 675.7465059391166 671.819866455431L664.7177675291807 678.187301110454C664.0968089354928 678.5457471506372 663.3317494141165 678.5457471506372 662.7107908204284 678.1872007616186L651.6820524104928 671.8197661065956C651.0610938168048 671.4613200664123 650.6785640561166 670.7987167060178 650.6785640561166 670.081724276816V657.34685496677C650.6785640561166 656.6298625375682 651.0610938168048 655.9672591771737 651.6820524104928 655.6087127881551L662.7107908204284 649.241278133132Z " stroke-width="14.607142857142858" stroke="#ff014f" fill="none" opacity="0.35928571428571426" transform="rotate(92.85714285714286, 400, 400)"></path><path d="M641.6140467210333 617.2581880737198C642.7368759589349 616.610039069553 644.120271257862 616.610039069553 645.2431004957635 617.2583695264085L665.185476798661 628.7720869848063C666.3083060365625 629.4202359889731 667.000003686026 630.6183680927003 667.000003686026 631.9148475537227V654.9422824705182C667.000003686026 656.2387619315407 666.3083060365625 657.4368940352679 665.185476798661 658.0852244921234L645.2431004957635 669.5989419505211C644.120271257862 670.247090954688 642.7368759589349 670.247090954688 641.6140467210333 669.5987604978325L621.6716704181359 658.0850430394346C620.5488411802344 657.4368940352679 619.8571435307708 656.2387619315407 619.8571435307708 654.9422824705182V631.9148475537227C619.8571435307708 630.6183680927003 620.5488411802344 629.4202359889731 621.6716704181359 628.7719055321176L641.6140467210333 617.2581880737198Z " stroke-width="14.714285714285714" stroke="#ff014f" fill="none" opacity="0.4085714285714286" transform="rotate(85.71428571428571, 400, 400)"></path><path d="M620.5172873628491 585.2751132730964C622.1419872449642 584.337261304946 624.1437183214421 584.337261304946 625.7684182035571 585.2753758296385L654.6244323994163 601.9353760914111C656.2491322815314 602.8732280595616 657.2499978197704 604.6068889066213 657.2499978197704 606.4828553994643V639.8028559230095C657.2499978197704 641.6788224158524 656.2491322815314 643.4124832629122 654.6244323994163 644.3505977876047L625.7684182035571 661.0105980493772C624.1437183214421 661.9484500175276 622.1419872449642 661.9484500175276 620.5172873628491 661.0103354928352L591.6612731669899 644.3503352310627C590.0365732848747 643.4124832629122 589.0357077466358 641.6788224158524 589.0357077466358 639.8028559230095V606.4828553994643C589.0357077466358 604.6068889066213 590.0365732848747 602.8732280595616 591.6612731669899 601.9351135348691L620.5172873628491 585.2751132730964Z " stroke-width="14.821428571428571" stroke="#ff014f" fill="none" opacity="0.45785714285714285" transform="rotate(78.57142857142857, 400, 400)"></path><path d="M599.420543263454 553.2920384724732C601.5471137897825 552.0644835403391 604.1671806438112 552.0644835403391 606.2937511701399 553.2923821328686L644.0634032589608 575.0986651980159C646.1899737852895 576.32622013015 647.5000072123039 578.5954097205424 647.5000072123039 581.0508632452061V624.6634293755006C647.5000072123039 627.1188829001642 646.1899737852895 629.3880724905566 644.0634032589608 630.6159710830862L606.2937511701399 652.4222541482334C604.1671806438112 653.6498090803675 601.5471137897825 653.6498090803675 599.420543263454 652.4219104878381L561.650891174633 630.6156274226907C559.5243206483044 629.3880724905566 558.2142872212901 627.1188829001642 558.2142872212901 624.6634293755006V581.0508632452061C558.2142872212901 578.5954097205424 559.5243206483044 576.32622013015 561.650891174633 575.0983215376206L599.420543263454 553.2920384724732Z " stroke-width="14.928571428571429" stroke="#ff014f" fill="none" opacity="0.5071428571428571" transform="rotate(71.42857142857143, 400, 400)"></path><path d="M578.3237839052696 521.3089484130609C580.9522250758118 519.791690516943 584.1906277073913 519.791690516943 586.8190688779334 521.3093731773095L633.5023588597162 548.2619390458316C636.1308000302583 549.7791969419493 637.7500013460481 552.5839152756744 637.7500013460481 555.6188558321585V609.5239875692027C637.7500013460481 612.5589281256869 636.1308000302583 615.3636464594119 633.5023588597162 616.8813291197783L586.8190688779334 643.8338949883005C584.1906277073913 645.3511528844182 580.9522250758118 645.3511528844182 578.3237839052696 643.8334702240518L531.6404939234869 616.8809043555298C529.0120527529448 615.3636464594119 527.3928514371551 612.5589281256869 527.3928514371551 609.5239875692027V555.6188558321585C527.3928514371551 552.5839152756744 529.0120527529448 549.7791969419493 531.6404939234869 548.261514281583L578.3237839052696 521.3089484130609Z " stroke-width="15.035714285714286" stroke="#ff014f" fill="none" opacity="0.5564285714285714" transform="rotate(64.28571428571428, 400, 400)"></path><path d="M557.2270245470854 489.3258812418322C560.3573363618411 487.5189203817307 564.2140747709715 487.5189203817307 567.3443865857272 489.3263871099341L622.9413144604716 521.4252357818309C626.0716262752273 523.2321966419324 627.9999954797925 526.57244371899 627.9999954797925 530.1868713072947V594.3845686510886C627.9999954797925 597.9989962393934 626.0716262752273 601.339243316451 622.9413144604716 603.1467100446544L567.3443865857272 635.2455587165512C564.2140747709715 637.0525195766526 560.3573363618411 637.0525195766526 557.2270245470854 635.2450528484493L501.63009667234104 603.1462041765524C498.49978485758527 601.339243316451 496.57141565302015 597.9989962393934 496.57141565302015 594.3845686510886V530.1868713072947C496.57141565302015 526.57244371899 498.49978485758527 523.2321966419324 501.63009667234104 521.424729913729L557.2270245470854 489.3258812418322Z " stroke-width="15.142857142857142" stroke="#ff014f" fill="none" opacity="0.6057142857142856" transform="rotate(57.14285714285714, 400, 400)"></path><path d="M536.1302804476902 457.34278355302524C539.7624629066595 455.2461197289402 544.2375370933405 455.2461197289402 547.8697195523098 457.3433705249805L612.3802853200159 494.5885020002521C616.0124677789853 496.6851658243372 618.2500048723258 500.5609416447274 618.2500048723258 504.75485626485283V579.245119215396C618.2500048723258 583.4390338355215 616.0124677789853 587.3148096559116 612.3802853200159 589.412060451952L547.8697195523098 626.6571919272236C544.2375370933405 628.7538557513087 539.7624629066595 628.7538557513087 536.1302804476902 626.6566049552684L471.61971467998404 589.4114734799967C467.9875322210147 587.3148096559116 465.7499951276742 583.4390338355215 465.7499951276742 579.245119215396V504.75485626485283C465.7499951276742 500.5609416447274 467.9875322210147 496.6851658243372 471.61971467998404 494.5879150282969L536.1302804476902 457.34278355302524Z " stroke-width="15.25" stroke="#ff014f" fill="none" opacity="0.655" transform="rotate(50, 400, 400)"></path><path d="M515.0335210895059 425.35970875240207C519.1675741926888 422.9733419643333 524.2609841569207 422.9733419643333 528.3950372601035 425.3603768282106L601.8192409207713 467.751791106857C605.9532940239543 470.1381578949257 608.4999990060702 474.5494624586485 608.4999990060702 479.32286411059454V564.1056926678873C608.4999990060702 568.8790943198334 605.9532940239543 573.2903988835562 601.8192409207713 575.6774337474334L528.3950372601035 618.0688480260799C524.2609841569207 620.4552148141486 519.1675741926888 620.4552148141486 515.0335210895059 618.0681799502713L441.6093174288381 575.6767656716249C437.47526432565525 573.2903988835562 434.92855934353935 568.8790943198334 434.92855934353935 564.1056926678873V479.32286411059454C434.92855934353935 474.5494624586485 437.47526432565525 470.1381578949257 441.6093174288381 467.75112303104845L515.0335210895059 425.35970875240207Z " stroke-width="15.357142857142858" stroke="#ff014f" fill="none" opacity="0.7042857142857142" transform="rotate(42.857142857142854, 400, 400)"></path><path d="M493.93677699011073 393.37663395177873C498.57270073750715 390.70056419972633 504.2844464792897 390.70056419972633 508.9203702266862 393.3773831314405L591.2582117803158 440.91508021346175C595.8941355277123 443.5911499655141 598.7500083986035 448.53798327256953 598.7500083986035 453.8908719563361V548.9662661203785C598.7500083986035 554.3191548041451 595.8941355277123 559.2659881112005 591.2582117803158 561.9428070429146L508.9203702266862 609.4805041249359C504.2844464792897 612.1565738769883 498.57270073750715 612.1565738769883 493.93677699011073 609.4797549452741L411.59893543648116 561.9420578632529C406.9630116890847 559.2659881112005 404.1071388181934 554.3191548041451 404.1071388181934 548.9662661203785V453.8908719563361C404.1071388181934 448.53798327256953 406.9630116890847 443.5911499655141 411.59893543648116 440.91433103379995L493.93677699011073 393.37663395177873Z " stroke-width="15.464285714285714" stroke="#ff014f" fill="none" opacity="0.7535714285714286" transform="rotate(35.71428571428571, 400, 400)"></path><path d="M472.84001763192646 361.39355915115544C477.9778120235365 358.4277864351194 484.30789354286986 358.4277864351194 489.44568793447985 361.3943894346706L580.6971673810712 414.07836932006654C585.8349617726813 417.0441420361026 589.0000025323479 422.52650408649055 589.0000025323479 428.4588798020778V533.8268395728696C589.0000025323479 539.759215288457 585.8349617726813 545.241577338845 580.6971673810712 548.208180338396L489.44568793447985 600.892160223792C484.30789354286986 603.8579329398281 477.9778120235365 603.8579329398281 472.84001763192646 600.8913299402769L381.58853818533515 548.2073500548809C376.45074379372517 545.241577338845 373.2857030340585 539.759215288457 373.2857030340585 533.8268395728696V428.4588798020778C373.2857030340585 422.52650408649055 376.45074379372517 417.0441420361026 381.58853818533515 414.0775390365514L472.84001763192646 361.39355915115544Z " stroke-width="15.571428571428571" stroke="#ff014f" fill="none" opacity="0.8028571428571427" transform="rotate(28.57142857142857, 400, 400)"></path><path d="M451.7432582737422 329.4104614623486C457.3829233095658 326.15498578232894 464.33134060644994 326.15498578232894 469.9710056422735 329.41137284971705L570.1361229818265 387.24163553848774C575.7757880176501 390.4971112185074 579.2499966660922 396.515002012228 579.2499966660922 403.0268647596358V518.6873901371773C579.2499966660922 525.1992528845851 575.7757880176501 531.2171436783058 570.1361229818265 534.4735307456938L469.9710056422735 592.3037934344645C464.33134060644994 595.5592691144843 457.3829233095658 595.5592691144843 451.7432582737422 592.3028820470961L351.57814093418915 534.4726193583253C345.9384758983656 531.2171436783058 342.4642672499235 525.1992528845851 342.4642672499235 518.6873901371773V403.0268647596358C342.4642672499235 396.515002012228 345.9384758983656 390.4971112185074 351.57814093418915 387.24072415111937L451.7432582737422 329.4104614623486Z " stroke-width="15.678571428571429" stroke="#ff014f" fill="none" opacity="0.8521428571428571" transform="rotate(21.42857142857143, 400, 400)"></path><path d="M430.6464989155579 297.42740192051434C436.78803459559504 293.882223276511 444.35478767002996 293.882223276511 450.4963233500671 297.42839441173606L559.5750785825819 360.40493990388154C565.716614262619 363.95011854788487 569.4999907998365 370.5035380849381 569.4999907998365 377.59488786416654V503.54797884845755C569.4999907998365 510.6393286276859 565.716614262619 517.1927481647392 559.5750785825819 520.7389192999642L450.4963233500671 583.7154647921096C444.35478767002996 587.260643436113 436.78803459559504 587.260643436113 430.6464989155579 583.7144723008879L321.56774368304315 520.7379268087425C315.42620800300597 517.1927481647392 311.64283146578856 510.6393286276859 311.64283146578856 503.54797884845755V377.59488786416654C311.64283146578856 370.5035380849381 315.42620800300597 363.95011854788487 321.56774368304315 360.4039474126598L430.6464989155579 297.42740192051434Z " stroke-width="15.785714285714285" stroke="#ff014f" fill="none" opacity="0.9014285714285715" transform="rotate(14.285714285714278, 400, 400)"></path><path d="M409.54975481616276 265.444311861102C416.1931611404134 261.609430253115 424.37824999239905 261.609430253115 431.0216563166498 265.44538545617706L549.0140494421262 333.5682137516973C555.6574557663769 337.4030953596843 559.7500001923697 344.4920436400701 559.7500001923697 352.1628804511191V488.4085370421596C559.7500001923697 496.07937385320866 555.6574557663769 503.1683221335945 549.0140494421262 507.00427733665646L431.0216563166498 575.1271056321766C424.37824999239905 578.9619872401638 416.1931611404134 578.9619872401638 409.54975481616276 575.1260320371018L291.5573616906862 507.0032037415815C284.9139553664355 503.1683221335945 280.82141094044266 496.07937385320866 280.82141094044266 488.4085370421596V352.1628804511191C280.82141094044266 344.4920436400701 284.9139553664355 337.4030953596843 291.5573616906862 333.5671401566223L409.54975481616276 265.444311861102Z " stroke-width="15.892857142857142" stroke="#ff014f" fill="none" opacity="0.9507142857142856" transform="rotate(7.142857142857139, 400, 400)"></path><path d="M388.4530107167675 233.46125231926777C395.59828768523175 229.33666774729716 404.40171231476825 229.33666774729716 411.5469892832325 233.46240701819613L538.4530203016707 306.7315181170911C545.5982972701349 310.8561026890618 550.0000095849032 318.48057971278024 550.0000095849032 326.7309035556499V473.2691257534399C550.0000095849032 481.5194495963096 545.5982972701349 489.14392662002797 538.4530203016707 493.26966589092694L411.5469892832325 566.538776989822C404.40171231476825 570.6633615617925 395.59828768523175 570.6633615617925 388.4530107167675 566.5376222908938L261.54697969832927 493.26851119199864C254.401702729865 489.14392662002797 249.99999041509682 481.5194495963096 249.99999041509682 473.2691257534399V326.7309035556499C249.99999041509682 318.48057971278024 254.401702729865 310.8561026890618 261.54697969832927 306.7303634181629L388.4530107167675 233.46125231926777Z " stroke-width="16" stroke="#ff014f" fill="none" opacity="1" transform="rotate(0, 400, 400)"></path></g></svg>