<svg xmlns="http://www.w3.org/2000/svg" version="1.1" xmlns:xlink="http://www.w3.org/1999/xlink" xmlns:svgjs="http://svgjs.dev/svgjs" width="1440" height="560" preserveAspectRatio="none" viewBox="0 0 1440 560"><g mask="url(&quot;#SvgjsMask1000&quot;)" fill="none"><path d="M941.15 35.05L994.33 35.05L994.33 88.23L941.15 88.23z" stroke="#e73635"></path><path d="M433.34 343.9 a51.87 51.87 0 1 0 103.74 0 a51.87 51.87 0 1 0 -103.74 0z" fill="rgba(241, 11, 192, 1)"></path><path d="M807.1 81.99L819.96 81.99L819.96 132.83L807.1 132.83z" stroke="rgba(241, 11, 192, 1)"></path><path d="M531.78 43.71L552.88 43.71L552.88 64.81L531.78 64.81z" fill="rgba(0, 149, 249, 1)"></path><path d="M1357.66 438.26 a19.54 19.54 0 1 0 39.08 0 a19.54 19.54 0 1 0 -39.08 0z" stroke="rgba(241, 11, 192, 1)"></path><path d="M12.78 10.1 a12.07 12.07 0 1 0 24.14 0 a12.07 12.07 0 1 0 -24.14 0z" stroke="rgba(0, 149, 249, 1)"></path><path d="M1238.89 10.42a20.79 20.79 0 1 0 35.54 21.58z" fill="rgba(255, 1, 79, 1)"></path><path d="M192.64 84.31a37.24 37.24 0 1 0-70.59-23.76z" fill="rgba(255, 1, 79, 1)"></path><path d="M80.25 114.08L103.55 114.08L103.55 137.38L80.25 137.38z" stroke="#e73635"></path><path d="M1393.13 35.81 a6.24 6.24 0 1 0 12.48 0 a6.24 6.24 0 1 0 -12.48 0z" stroke="rgba(0, 149, 249, 1)"></path><path d="M1344.44 527.4a30.02 30.02 0 1 0 52.9-28.4z" fill="rgba(0, 149, 249, 1)"></path><path d="M332.93 428.05 a27.65 27.65 0 1 0 55.3 0 a27.65 27.65 0 1 0 -55.3 0z" fill="rgba(0, 149, 249, 1)"></path><path d="M1259.07 101.81 a25.2 25.2 0 1 0 50.4 0 a25.2 25.2 0 1 0 -50.4 0z" fill="rgba(255, 1, 79, 1)"></path><path d="M820.87 300.74a10.02 10.02 0 1 0 17.36 10.01z" fill="rgba(0, 149, 249, 1)"></path><path d="M1260.8 199.03a26.31 26.31 0 1 0 52.06 7.7z" stroke="#e73635"></path><path d="M1395.85-7.52a23.42 23.42 0 1 0-20.97 41.89z" fill="rgba(0, 149, 249, 1)"></path><path d="M358.43 507.44 a49.96 49.96 0 1 0 99.92 0 a49.96 49.96 0 1 0 -99.92 0z" stroke="#e73635"></path><path d="M368.31 21.7L414.05 21.7L414.05 67.44L368.31 67.44z" stroke="rgba(241, 11, 192, 1)"></path><path d="M69.85 214.14L97.86 214.14L97.86 263.2L69.85 263.2z" fill="rgba(241, 11, 192, 1)"></path><path d="M892.85 298.15a34.27 34.27 0 1 0 67.02-14.34z" stroke="#e73635"></path><path d="M46.02 300.84 a55.75 55.75 0 1 0 111.5 0 a55.75 55.75 0 1 0 -111.5 0z" stroke="rgba(255, 1, 79, 1)"></path><path d="M1201.22 312.44L1246.26 312.44L1246.26 357.48L1201.22 357.48z" fill="rgba(0, 149, 249, 1)"></path><path d="M421.31 471.91a17.92 17.92 0 1 0-33.87 11.71z" fill="rgba(255, 1, 79, 1)"></path><path d="M679.89 164.47 a21.72 21.72 0 1 0 43.44 0 a21.72 21.72 0 1 0 -43.44 0z" stroke="rgba(255, 1, 79, 1)"></path><path d="M1324.36 87.58a9.37 9.37 0 1 0-18.74 0.39z" stroke="rgba(0, 149, 249, 1)"></path><path d="M551.96 520.87 a0.57 0.57 0 1 0 1.14 0 a0.57 0.57 0 1 0 -1.14 0z" stroke="rgba(241, 11, 192, 1)"></path><path d="M922.09 372.55L972.07 372.55L972.07 422.53L922.09 422.53z" stroke="rgba(0, 149, 249, 1)"></path><path d="M1110.62 285.5 a40.51 40.51 0 1 0 81.02 0 a40.51 40.51 0 1 0 -81.02 0z" stroke="#e73635"></path><path d="M1152.88 405.65a2.81 2.81 0 1 0-5.04 2.48z" stroke="#e73635"></path><path d="M343.91 278.33L360.09 278.33L360.09 315.08L343.91 315.08z" stroke="rgba(0, 149, 249, 1)"></path><path d="M714.64 190.74 a25.81 25.81 0 1 0 51.62 0 a25.81 25.81 0 1 0 -51.62 0z" fill="#e73635"></path><path d="M797.28 4.39L832.51 4.39L832.51 4.73L797.28 4.73z" fill="#e73635"></path><path d="M440.08 57.97L462.75 57.97L462.75 80.64L440.08 80.64z" stroke="#e73635"></path></g><defs><mask id="SvgjsMask1000"><rect width="1440" height="560" fill="#ffffff"></rect></mask></defs></svg>