<svg xmlns="http://www.w3.org/2000/svg" version="1.1" xmlns:xlink="http://www.w3.org/1999/xlink" xmlns:svgjs="http://svgjs.dev/svgjs" width="1440" height="560" preserveAspectRatio="none" viewBox="0 0 1440 560"><g mask="url(&quot;#SvgjsMask1017&quot;)" fill="none"><g transform="translate(0, 0)" stroke-linecap="round"><path d="M300 252.31 L300 307.69" stroke-width="15" stroke="rgba(255, 1, 79, 1)"></path><path d="M320 151.81 L320 408.19" stroke-width="15" stroke="rgba(184, 184, 184, 1)"></path><path d="M340 231.13 L340 328.87" stroke-width="15" stroke="rgba(184, 184, 184, 1)"></path><path d="M360 132.66 L360 427.35" stroke-width="15" stroke="rgba(255, 1, 79, 1)"></path><path d="M380 254.62 L380 305.38" stroke-width="15" stroke="rgba(184, 184, 184, 1)"></path><path d="M400 133.5 L400 426.5" stroke-width="15" stroke="rgba(255, 1, 79, 1)"></path><path d="M420 241.53 L420 318.47" stroke-width="15" stroke="rgba(184, 184, 184, 1)"></path><path d="M440 254.38 L440 305.63" stroke-width="15" stroke="rgba(184, 184, 184, 1)"></path><path d="M460 243.24 L460 316.76" stroke-width="15" stroke="rgba(184, 184, 184, 1)"></path><path d="M480 157.06 L480 402.94" stroke-width="15" stroke="rgba(184, 184, 184, 1)"></path><path d="M500 195.88 L500 364.12" stroke-width="15" stroke="rgba(184, 184, 184, 1)"></path><path d="M520 132.11 L520 427.89" stroke-width="15" stroke="rgba(184, 184, 184, 1)"></path><path d="M540 185.57 L540 374.43" stroke-width="15" stroke="rgba(255, 1, 79, 1)"></path><path d="M560 188.88 L560 371.13" stroke-width="15" stroke="rgba(184, 184, 184, 1)"></path><path d="M580 149.84 L580 410.15" stroke-width="15" stroke="rgba(184, 184, 184, 1)"></path><path d="M600 127.68 L600 432.32" stroke-width="15" stroke="rgba(184, 184, 184, 1)"></path><path d="M620 193.87 L620 366.13" stroke-width="15" stroke="rgba(255, 1, 79, 1)"></path><path d="M640 224.29 L640 335.71" stroke-width="15" stroke="rgba(255, 1, 79, 1)"></path><path d="M660 173.76 L660 386.24" stroke-width="15" stroke="rgba(184, 184, 184, 1)"></path><path d="M680 238.97 L680 321.03" stroke-width="15" stroke="rgba(184, 184, 184, 1)"></path><path d="M700 162.06 L700 397.94" stroke-width="15" stroke="rgba(184, 184, 184, 1)"></path><path d="M720 144.53 L720 415.48" stroke-width="15" stroke="rgba(255, 1, 79, 1)"></path><path d="M740 195.82 L740 364.18" stroke-width="15" stroke="rgba(255, 1, 79, 1)"></path><path d="M760 241.1 L760 318.89" stroke-width="15" stroke="rgba(184, 184, 184, 1)"></path><path d="M780 190.7 L780 369.3" stroke-width="15" stroke="rgba(255, 1, 79, 1)"></path><path d="M800 170.14 L800 389.86" stroke-width="15" stroke="rgba(255, 1, 79, 1)"></path><path d="M820 233.77 L820 326.23" stroke-width="15" stroke="rgba(184, 184, 184, 1)"></path><path d="M840 212.77 L840 347.23" stroke-width="15" stroke="rgba(255, 1, 79, 1)"></path><path d="M860 247.76 L860 312.24" stroke-width="15" stroke="rgba(255, 1, 79, 1)"></path><path d="M880 253.03 L880 306.98" stroke-width="15" stroke="rgba(255, 1, 79, 1)"></path><path d="M900 178.31 L900 381.69" stroke-width="15" stroke="rgba(184, 184, 184, 1)"></path><path d="M920 126.47 L920 433.53" stroke-width="15" stroke="rgba(184, 184, 184, 1)"></path><path d="M940 218.09 L940 341.91" stroke-width="15" stroke="rgba(255, 1, 79, 1)"></path><path d="M960 163.31 L960 396.69" stroke-width="15" stroke="rgba(255, 1, 79, 1)"></path><path d="M980 232.16 L980 327.84" stroke-width="15" stroke="rgba(255, 1, 79, 1)"></path><path d="M1000 226.22 L1000 333.77" stroke-width="15" stroke="rgba(255, 1, 79, 1)"></path><path d="M1020 253.19 L1020 306.81" stroke-width="15" stroke="rgba(184, 184, 184, 1)"></path><path d="M1040 179.12 L1040 380.88" stroke-width="15" stroke="rgba(255, 1, 79, 1)"></path><path d="M1060 149.94 L1060 410.06" stroke-width="15" stroke="rgba(255, 1, 79, 1)"></path><path d="M1080 178.1 L1080 381.9" stroke-width="15" stroke="rgba(184, 184, 184, 1)"></path><path d="M1100 177.36 L1100 382.64" stroke-width="15" stroke="rgba(255, 1, 79, 1)"></path><path d="M1120 212.91 L1120 347.1" stroke-width="15" stroke="rgba(255, 1, 79, 1)"></path><path d="M1140 186.78 L1140 373.22" stroke-width="15" stroke="rgba(184, 184, 184, 1)"></path></g></g><defs><mask id="SvgjsMask1017"><rect width="1440" height="560" fill="#ffffff"></rect></mask></defs></svg>