<svg xmlns="http://www.w3.org/2000/svg" version="1.1" xmlns:xlink="http://www.w3.org/1999/xlink" xmlns:svgjs="http://svgjs.dev/svgjs" width="1440" height="560" preserveAspectRatio="none" viewBox="0 0 1440 560"><g mask="url(&quot;#SvgjsMask1004&quot;)" fill="none"><path d="M0 219.39L10 218.59L20 215.7L30 168.78L40 139.15L50 132.99L60 168.54L70 188.35L80 151.16L90 87.71L100 96.45L110 133.01L120 116.54L130 140.43L140 163.25L150 129.81L160 95.05L170 91.26L180 146.36L190 126.28L200 65.79L210 128.28L220 178.12L230 172.97L240 122.88L250 106.34L260 174.26L270 212.2L280 221.56L290 246.71L300 181.78L310 124.99L320 183.07L330 233.9L340 274.68L350 255.01L360 188.31L370 146.11L380 81.84L390 51.09L400 74.2L410 34.56L420 3.85L430 28.26L440 4.4L450 31.26L460 80.6L470 102.08L480 61.16L490 74.37L500 98.14L510 74.45L520 120.81L530 135.98L540 188.18L550 245.34L560 237.99L570 249.72L580 233.25L590 219.86L600 225.22L610 230.05L620 274.92L630 273.51L640 293.69L650 244.96L660 292.13L670 245.46L680 285.02L690 264.02L700 316.85L710 373.93L720 332.81L730 341.72L740 272.13L750 327.92L760 361.82L770 413.46L780 403.88L790 354.25L800 419.3L810 438.4L820 503.96L830 441.63L840 410.03L850 348.41L860 342.44L870 409.37L880 341.99L890 349.22L900 319.48L910 345.37L920 306.23L930 347.72L940 289.72L950 230.8L960 173.4L970 226.15L980 212.13L990 177.39L1000 131.35L1010 150.44L1020 127.85L1030 116.32L1040 150.45L1050 161.39L1060 127.13L1070 101.94L1080 71.27L1090 69.3L1100 122.32L1110 190.18L1120 143.86L1130 99.84L1140 95.54L1150 104.79L1160 147.11L1170 113.36L1180 131.67L1190 92.49L1200 109.82L1210 93.38L1220 33.85L1230 68.22L1240 97.48L1250 49.48L1260 17.72L1270 73.79L1280 142.83L1290 104.9L1300 154.03L1310 163.61L1320 160.37L1330 165.8L1340 110.91L1350 132.95L1360 127.45L1370 103.18L1380 51.84L1390 110.19L1400 95.05L1410 68.92L1420 75.05L1430 83.78L1440 153.74" stroke="rgba(255, 1, 79, 1)" stroke-width="2"></path><path d="M0 219.39L10 218.59L20 215.7L30 168.78L40 139.15L50 132.99L60 168.54L70 188.35L80 151.16L90 87.71L100 96.45L110 133.01L120 116.54L130 140.43L140 163.25L150 129.81L160 95.05L170 91.26L180 146.36L190 126.28L200 65.79L210 128.28L220 178.12L230 172.97L240 122.88L250 106.34L260 174.26L270 212.2L280 221.56L290 246.71L300 181.78L310 124.99L320 183.07L330 233.9L340 274.68L350 255.01L360 188.31L370 146.11L380 81.84L390 51.09L400 74.2L410 34.56L420 3.85L430 28.26L440 4.4L450 31.26L460 80.6L470 102.08L480 61.16L490 74.37L500 98.14L510 74.45L520 120.81L530 135.98L540 188.18L550 245.34L560 237.99L570 249.72L580 233.25L590 219.86L600 225.22L610 230.05L620 274.92L630 273.51L640 293.69L650 244.96L660 292.13L670 245.46L680 285.02L690 264.02L700 316.85L710 373.93L720 332.81L730 341.72L740 272.13L750 327.92L760 361.82L770 413.46L780 403.88L790 354.25L800 419.3L810 438.4L820 503.96L830 441.63L840 410.03L850 348.41L860 342.44L870 409.37L880 341.99L890 349.22L900 319.48L910 345.37L920 306.23L930 347.72L940 289.72L950 230.8L960 173.4L970 226.15L980 212.13L990 177.39L1000 131.35L1010 150.44L1020 127.85L1030 116.32L1040 150.45L1050 161.39L1060 127.13L1070 101.94L1080 71.27L1090 69.3L1100 122.32L1110 190.18L1120 143.86L1130 99.84L1140 95.54L1150 104.79L1160 147.11L1170 113.36L1180 131.67L1190 92.49L1200 109.82L1210 93.38L1220 33.85L1230 68.22L1240 97.48L1250 49.48L1260 17.72L1270 73.79L1280 142.83L1290 104.9L1300 154.03L1310 163.61L1320 160.37L1330 165.8L1340 110.91L1350 132.95L1360 127.45L1370 103.18L1380 51.84L1390 110.19L1400 95.05L1410 68.92L1420 75.05L1430 83.78L1440 153.74L1440 560L0 560z" fill="url(&quot;#SvgjsLinearGradient1005&quot;)"></path></g><defs><mask id="SvgjsMask1004"><rect width="1440" height="560" fill="#ffffff"></rect></mask><linearGradient x1="50%" y1="0%" x2="50%" y2="100%" id="SvgjsLinearGradient1005"><stop stop-opacity="0.65" stop-color="rgba(255, 1, 79, 1)" offset="0"></stop><stop stop-opacity="0" stop-color="#ffe2eb" offset="0.8"></stop></linearGradient></defs></svg>