<svg id="visual" viewBox="0 0 900 600" width="900" height="600" xmlns="http://www.w3.org/2000/svg" xmlns:xlink="http://www.w3.org/1999/xlink" version="1.1"><path d="M0 539L18.8 536.2C37.7 533.3 75.3 527.7 112.8 529.8C150.3 532 187.7 542 225.2 538.8C262.7 535.7 300.3 519.3 337.8 514.8C375.3 510.3 412.7 517.7 450.2 522.5C487.7 527.3 525.3 529.7 562.8 531.7C600.3 533.7 637.7 535.3 675.2 533.5C712.7 531.7 750.3 526.3 787.8 523.5C825.3 520.7 862.7 520.3 881.3 520.2L900 520L900 601L881.3 601C862.7 601 825.3 601 787.8 601C750.3 601 712.7 601 675.2 601C637.7 601 600.3 601 562.8 601C525.3 601 487.7 601 450.2 601C412.7 601 375.3 601 337.8 601C300.3 601 262.7 601 225.2 601C187.7 601 150.3 601 112.8 601C75.3 601 37.7 601 18.8 601L0 601Z" fill="#ff014f" stroke-linecap="round" stroke-linejoin="miter"></path></svg>