<svg id="visual" viewBox="0 0 1024 1024" width="1024" height="1024" xmlns="http://www.w3.org/2000/svg" xmlns:xlink="http://www.w3.org/1999/xlink" version="1.1"><path d="M0 53L21.3 69.5C42.7 86 85.3 119 128 134C170.7 149 213.3 146 256 141.7C298.7 137.3 341.3 131.7 384 118.8C426.7 106 469.3 86 512 71.7C554.7 57.3 597.3 48.7 640 64.3C682.7 80 725.3 120 768 128.3C810.7 136.7 853.3 113.3 896 109.5C938.7 105.7 981.3 121.3 1002.7 129.2L1024 137L1024 0L1002.7 0C981.3 0 938.7 0 896 0C853.3 0 810.7 0 768 0C725.3 0 682.7 0 640 0C597.3 0 554.7 0 512 0C469.3 0 426.7 0 384 0C341.3 0 298.7 0 256 0C213.3 0 170.7 0 128 0C85.3 0 42.7 0 21.3 0L0 0Z" fill="#ff014f" stroke-linecap="round" stroke-linejoin="miter"></path></svg>